<svg xmlns="http://www.w3.org/2000/svg" viewBox="815.729 541.607 273.633 40.475"><defs><style>.a{fill:#fff;}</style></defs><path class="a" d="M293.826,182.954q.738,1.892,1.646,4.165t1.866,4.742q.959,2.468,1.892,4.928H285.58l2.435-6q1.12-2.765,2.053-4.954t1.561-3.724q.628-1.535.959-2.248.492,1.2,1.23,3.1m21.936,30.1v-.653a5.658,5.658,0,0,1-2.189-.492A6.209,6.209,0,0,1,312,210.9a6.865,6.865,0,0,1-1.009-1.12,7.173,7.173,0,0,1-.492-.763l-1.179-2.545q-.517-1.12-1.12-2.825-1.315-3.452-2.63-6.981t-2.714-7.312q-1.4-3.783-2.927-7.863T296.7,172.86h-.441q-.221.382-.628.984a11.244,11.244,0,0,1-1.018,1.264,10.5,10.5,0,0,1-1.4,1.255,8.923,8.923,0,0,1-1.781,1.043l.551,1.2q-1.315,3.071-2.791,6.6t-2.986,7.007L283.282,199l-2.545,5.861a39.725,39.725,0,0,1-2.138,4.241,11.877,11.877,0,0,1-1.264,1.807,5.387,5.387,0,0,1-1.179.848,6.073,6.073,0,0,1-2.434.763v.6h11.664v-.551l-1.51-.246a6.286,6.286,0,0,1-1.476-.441,3.392,3.392,0,0,1-1.12-.763,1.645,1.645,0,0,1-.441-1.179,13.843,13.843,0,0,1,1.154-4.165q.764-1.917,1.535-3.809t1.586-3.97h14.573q.848,2.138,1.535,4.106t1.255,3.588q.543,1.62.848,2.74a7.228,7.228,0,0,1,.305,1.612,1.7,1.7,0,0,1-.517,1.264,3.766,3.766,0,0,1-1.2.763,6.568,6.568,0,0,1-1.315.382,6.36,6.36,0,0,1-.8.11v.551Zm-66.326,0v-.6a8.949,8.949,0,0,0,3.944-.984,4.81,4.81,0,0,0,2.138-2.027,6.718,6.718,0,0,0,.492-1.781,21.216,21.216,0,0,0,.221-2.163q.11-3.614.11-6.9V176.3l-3.317,7.448q-1.51,3.393-2.986,6.625t-2.986,6.6l-3.308,7.388q-.271.551-.763,1.7t-.984,2.409q-.492,1.23-.933,2.248t-.551,1.34h-.331l-3.478-8.05q-1.7-4-3.393-7.694t-3.071-6.93q-1.425-3.232-2.545-5.751t-1.892-4.241q-.738-1.7-1.018-2.3v6.379q0,2.765-.051,5.48v12.732q0,2.545.161,4.462a8.61,8.61,0,0,0,.848,3.173,4.75,4.75,0,0,0,2,2.027,10.892,10.892,0,0,0,3.7,1.069v.551h-14.37v-.551a9.543,9.543,0,0,0,3.122-1.12,5.344,5.344,0,0,0,1.917-2.053,10.527,10.527,0,0,0,1.043-3.257,32.9,32.9,0,0,0,.382-4.742q.11-2.358.161-5.556t.051-6.871v-6.9q0-1.094-.051-2.681a4.98,4.98,0,0,0-.662-2.494,4.928,4.928,0,0,0-1.425-1.51,5.878,5.878,0,0,0-1.756-.8q-.933-.246-1.586-.356v-.543h11.664l13.131,29.884q2.409-5.2,4.708-10.349t4.14-9.331q1.832-4.165,3.011-6.93t1.34-3.206H267.92v.543a5.938,5.938,0,0,0-3.393.933,4.5,4.5,0,0,0-1.62,2.078,11.275,11.275,0,0,0-.441,2.9q-.11,1.968-.161,3.885-.051,2.63-.059,5.09v10.9q0,2.9.059,6.133a16.5,16.5,0,0,0,.136,2.111,4.826,4.826,0,0,0,.467,1.7,3.845,3.845,0,0,0,.407.517,5.691,5.691,0,0,0,1.018.848,6.835,6.835,0,0,0,1.646.848,7.635,7.635,0,0,0,2.3.407v.551Zm-43.109-17.814a2.842,2.842,0,0,0-1.586,1.12,3.859,3.859,0,0,0-.441,1.866q-.051,1.264-.051,2.545v8a12.036,12.036,0,0,1-1.9,1.1,34.736,34.736,0,0,1-8.483,2.9,25.744,25.744,0,0,1-5.259.551,29.909,29.909,0,0,1-9.331-1.34,18.543,18.543,0,0,1-6.93-3.944,17.245,17.245,0,0,1-4.326-6.354,22.386,22.386,0,0,1-1.51-8.406,20.913,20.913,0,0,1,.271-3.147,21.309,21.309,0,0,1,.959-3.749,20.865,20.865,0,0,1,1.917-4,19.407,19.407,0,0,1,3.1-3.834,19.748,19.748,0,0,1,6.464-4.131,24.7,24.7,0,0,1,9.331-1.561,26.243,26.243,0,0,1,5.8.577,29.469,29.469,0,0,1,4.241,1.255,17.729,17.729,0,0,1,2.655,1.264,5.461,5.461,0,0,0,1.043.577q.11,0,.6-.653l1.2-1.586h.492v11.91h-.662a18.993,18.993,0,0,0-1.807-4.657,17.068,17.068,0,0,0-2.545-3.614,12.953,12.953,0,0,0-4.487-3.011,15.7,15.7,0,0,0-6.133-1.154,13.182,13.182,0,0,0-6.515,1.612,15.524,15.524,0,0,0-4.928,4.326,20.444,20.444,0,0,0-3.122,6.243,24.915,24.915,0,0,0-1.094,7.422,27.528,27.528,0,0,0,1.043,7.8,17.907,17.907,0,0,0,3.011,6.048,13.708,13.708,0,0,0,4.818,3.919,14.616,14.616,0,0,0,6.515,1.4,13.139,13.139,0,0,0,4.9-.908,7.448,7.448,0,0,0,3.588-2.927,6.786,6.786,0,0,0,.662-2.545,30.978,30.978,0,0,0,.221-3.724,28,28,0,0,0-.2-3.452,4.352,4.352,0,0,0-1.12-2.545q-1.264-1.425-4.436-1.7v-.543h16.049v.543a10.723,10.723,0,0,0-2.027.467m-66.105,17.814v-.551a11.1,11.1,0,0,0,2.545-.713,5.42,5.42,0,0,0,2-1.425,2.206,2.206,0,0,0,.407-.933,11.825,11.825,0,0,0,.221-1.425c.059-.551.093-1.12.11-1.7s0-1.2,0-1.781V202.43c0-.874,0-1.832.059-2.876s0-2.112,0-3.206V180.52q0-.984-.085-1.832a11.191,11.191,0,0,0-.246-1.535,2.545,2.545,0,0,0-.492-1.069,4.351,4.351,0,0,0-1.892-1.34,11.214,11.214,0,0,0-2.545-.577v-.543h16.38v.543a14.289,14.289,0,0,0-2.468.6,3.529,3.529,0,0,0-2.027,1.756,5.226,5.226,0,0,0-.517,2.358q0,1.425-.085,2.681a21.707,21.707,0,0,0,0,2.714V205.34q0,1.586.059,3.071a3.911,3.911,0,0,0,.492,2.078,4.072,4.072,0,0,0,2.078,1.425,11.2,11.2,0,0,0,2.545.6v.551Zm-12.843-37.85a4.861,4.861,0,0,0-1.892,2.358,9.22,9.22,0,0,0-.492,3.037q-.11,2.222-.221,4.742-.11,2.358-.2,5.556t-.085,6.871V212.7a.484.484,0,0,1-.136.356.56.56,0,0,1-.407.136,1.51,1.51,0,0,1-.984-.551q-4.657-5.369-8.483-9.857l-7.312-8.576q-3.478-4.08-6.786-7.965t-7.066-8.05v23.115q0,2.791.136,5.039a9.042,9.042,0,0,0,.687,3.342,3.953,3.953,0,0,0,1.892,1.892,11.324,11.324,0,0,0,3.537.908v.551H86.128v-.551a10.7,10.7,0,0,0,2.63-.687,4.241,4.241,0,0,0,2.078-1.7,7.516,7.516,0,0,0,.984-3.393q.221-2.248.331-5.37.11-2.358.161-5.556t.059-6.871v-6.684q0-1.094-.059-2.681a6.354,6.354,0,0,0-.763-2.6,5.09,5.09,0,0,0-1.425-1.586,5.454,5.454,0,0,0-1.781-.848,14.845,14.845,0,0,0-1.832-.356v-.543H97.63L123.6,203.957V185.3q0-2.189-.051-4.19a9.891,9.891,0,0,0-.492-3.147,5.022,5.022,0,0,0-1.976-2.434,9.636,9.636,0,0,0-4.021-1.34v-.543h13.572v.543a8.271,8.271,0,0,0-3.257,1.043m-51.744,37.85H42.12v-.551a11.1,11.1,0,0,0,2.545-.713,5.216,5.216,0,0,0,1.943-1.366,2.486,2.486,0,0,0,.441-.959q.161-.628.305-1.451a16.968,16.968,0,0,0,.2-1.7q.051-.908.051-1.781v-2.078q0-1.315.051-2.876t0-3.206V180.46a16.64,16.64,0,0,0-.11-1.968,10.391,10.391,0,0,0-.271-1.7,2.333,2.333,0,0,0-.517-1.069A3.749,3.749,0,0,0,45,174.607a23.151,23.151,0,0,0-2.409-.467V173.6H72.853l3.724,9.034-.551.271q-4.436-5.531-8.33-7.448a13.259,13.259,0,0,0-3.452-.763,48.487,48.487,0,0,0-6.133-.331q-1.154,0-2.384.085a15.272,15.272,0,0,0-1.781.2q-.11.848-.2,3.614t-.085,6.354v7.88h1.162q.848,0,1.892-.059t2.138-.136a12.367,12.367,0,0,0,1.781-.246A9.492,9.492,0,0,0,63.378,191a6.014,6.014,0,0,0,1.781-1.586,7.779,7.779,0,0,0,1.094-2.163,25.927,25.927,0,0,0,.738-2.765h.662v17.254h-.662a18.762,18.762,0,0,0-1.34-3.614,9.628,9.628,0,0,0-1.892-2.791,7.287,7.287,0,0,0-2.112-1.255,9.45,9.45,0,0,0-2.876-.6l-1.366-.085H53.767a16.965,16.965,0,0,0-.11,2.248v9.611q.051,1.756.2,3.317a5.234,5.234,0,0,0,.628,2.333A3.466,3.466,0,0,0,56.837,212a23.375,23.375,0,0,0,4.055.331q.933,0,2.384-.051a29.614,29.614,0,0,0,3.037-.271,11.934,11.934,0,0,0,3.232-.848,11.324,11.324,0,0,0,2.85-1.781,18.067,18.067,0,0,0,2.706-2.926,37.484,37.484,0,0,0,2.655-4.029l.6.161Z" transform="translate(773.609 368.747)"/></svg>