<svg xmlns="http://www.w3.org/2000/svg" viewBox="36.039 -3.621 38.039 38.06"><defs><style>.a{fill:#19262c;}</style></defs><g transform="translate(-80.061 -281.961)"><path class="a" d="M132.4,291.4a.52.52,0,0,1-.4-.2.527.527,0,0,1,.2-.7l21-12.1a.515.515,0,0,1,.5.9l-21,12.1h-.3"/><path class="a" d="M126.6,297.4v-4.5a22.95,22.95,0,0,0-5.3-.5h-.5a24.809,24.809,0,0,0-4.7.5v8c.3,3.8,5.3,5.8,5.3,5.8s4.1-1.6,5.1-4.7a15.64,15.64,0,0,0-2.2-.5,5.974,5.974,0,0,1-2.8,2.5s-3-1.2-3.1-3.5a25.414,25.414,0,0,1,3.1-.2,30.975,30.975,0,0,1,3.9.3h.3a.367.367,0,0,1,.3.1h0c.3.1.6.1.8.2v-2.5h0a19.409,19.409,0,0,0-2.2-.3h0a25.348,25.348,0,0,0-6.2,0v-2.7a10.71,10.71,0,0,1,2.8-.3h.4a12.985,12.985,0,0,1,3.1.3v1.8a5.4,5.4,0,0,1,1.9.2"/><path class="a" d="M123.9,291l-.9-1.5.9-1.2a18.74,18.74,0,0,0-4.9,0v2.6a27.316,27.316,0,0,1,4.9.1"/><path class="a" d="M153.6,316.4c-.1,0-.2,0-.2-.1l-21-12.1a.515.515,0,0,1,.5-.9l21,12.1a.574.574,0,0,1,.2.7c-.2.2-.3.3-.5.3"/></g></svg>