<svg xmlns="http://www.w3.org/2000/svg" viewBox="916.511 395 72.094 125.18"><defs><style>.a{fill:#ed1c24;}</style></defs><g transform="translate(-8.192 61.974)"><path class="a" d="M232.931,90.446c.042-.67.085-1.34.085-2.019V73.54h0c-7.371-1.484-13.852-2.2-15.023-2.316h0a197.364,197.364,0,0,0-42.04,0V52.562s6.667-1.8,18.764-2.01h2.29c13.5,0,20.995,2.036,20.995,2.036V64.676c1.451.144,7.829.848,15.023,2.222V36.216s-12.834-3.461-36-3.486H193.1c-20.74.373-32.175,3.452-32.175,3.452V88.427a15.877,15.877,0,0,0,.085,2.019c1.7,25.957,35.966,39.724,35.966,39.724s27.679-11.138,34.507-32.234a119.718,119.718,0,0,0-15.15-3.393c-4.954,11.027-19.357,16.813-19.357,16.813s-20.681-8.313-21-23.98a159.833,159.833,0,0,1,21.054-1.323,149.935,149.935,0,0,1,26.636,2.2l.356.068.517.1.95.187h0l1.8.382h.1c1.841.407,3.749.9,5.522,1.459Z" transform="translate(763.773 328.036)"/><path class="a" d="M212.213,9.064l6.074-8.025A154.791,154.791,0,0,0,184.67.853V18.666a158.268,158.268,0,0,1,33.625.221Z" transform="translate(760.171 332.998)"/></g></svg>