<svg xmlns="http://www.w3.org/2000/svg" viewBox="858.846 592.789 187.339 21.582"><defs><style>.a{fill:#fff;}</style></defs><path class="a" d="M278.924,234.226a4.539,4.539,0,0,0-1.077.755,7.3,7.3,0,0,0-.95,1.1q-.45.645-.976,1.459-.348.551-.975,1.5t-1.272,1.968l-1.264,1.951-.959,1.459v5.853q0,.848.042,1.646a2.188,2.188,0,0,0,.28,1.12,2.036,2.036,0,0,0,1.137.848,13.185,13.185,0,0,0,1.34.322v.288h-8.992v-.263a6.573,6.573,0,0,0,1.323-.28,2.986,2.986,0,0,0,1.2-.916.984.984,0,0,0,.221-.492,7.542,7.542,0,0,0,.119-.789c0-.288.051-.6.059-.933s0-.653,0-.959q0-.848.042-1.934t0-2.723l-.348-.551-.713-1.154-.933-1.527-1-1.646-.891-1.535q-.433-.7-.729-1.137l-1-1.544a8.478,8.478,0,0,0-.916-1.2,5.09,5.09,0,0,0-.916-.789,2.061,2.061,0,0,0-1.035-.322v-.288h8.839v.288a6.681,6.681,0,0,0-.848.085,4.183,4.183,0,0,0-.848.187,1.7,1.7,0,0,0-.611.348.781.781,0,0,0-.238.6,2.79,2.79,0,0,0,.424,1.154q.424.772.848,1.561l.755,1.264q.433.746.959,1.569l1.06,1.7q.543.848,1,1.7.382-.551.933-1.417l1.12-1.747,1.077-1.7q.509-.848.772-1.281.144-.229.322-.543c.119-.2.229-.416.339-.645a6.013,6.013,0,0,0,.28-.687,2.061,2.061,0,0,0,.119-.645,1.06,1.06,0,0,0-.238-.73,1.561,1.561,0,0,0-.594-.407,3.888,3.888,0,0,0-.806-.221l-.848-.127v-.288h6.727v.288a4.581,4.581,0,0,0-1.4.407m-21.207,4.776q-.238-.526-.551-1.094t-.653-1.06q-.331-.492-.653-.916a4.393,4.393,0,0,0-.551-.628,3.054,3.054,0,0,0-1.323-.772,8.117,8.117,0,0,0-1.824-.221h-3.732v15.99q0,.848.042,1.62a2.129,2.129,0,0,0,.28,1.094,2.18,2.18,0,0,0,1.238.848,14.42,14.42,0,0,0,1.442.348v.288h-9.475v-.271a8.751,8.751,0,0,0,1.459-.288,3.02,3.02,0,0,0,1.366-.959.976.976,0,0,0,.221-.484,6.933,6.933,0,0,0,.119-.755q.042-.424.059-.916t0-.959V234.285h-3.7a6.541,6.541,0,0,0-1.824.263,3.5,3.5,0,0,0-1.323.848,4.09,4.09,0,0,0-.534.611q-.305.407-.645.848a11.876,11.876,0,0,0-.645,1.035,6.575,6.575,0,0,0-.484,1.077l-.263-.085.848-5.539q.67.144,1.238.229a14.071,14.071,0,0,0,1.646.119l1.985.042h12.614a9.332,9.332,0,0,0,1.586-.161q.628-.127,1.3-.331l.933,5.683Zm-32.31-2.655a5.03,5.03,0,0,0-2.129-1.807,6.371,6.371,0,0,0-1.467-.467,8.754,8.754,0,0,0-1.62-.144h-.992l-.585.059a.509.509,0,0,1-.059.305,2.307,2.307,0,0,0-.042.331v.568q0,.365-.042,1.035,0,1.018-.042,2.3t0,2.477v3.206q1.2,0,2.231-.1a9.05,9.05,0,0,0,1.993-.424,5.335,5.335,0,0,0,1.6-.789,4.59,4.59,0,0,0,1.094-1.12,4.657,4.657,0,0,0,.628-1.357,5.632,5.632,0,0,0,.2-1.518,4.708,4.708,0,0,0-.73-2.6m2.884,18.153-.382-.39-.263-.305a5.779,5.779,0,0,1-.365-.509q-.221-.331-.687-1-.551-.848-.975-1.476t-.848-1.3q-.433-.636-.95-1.3t-1.213-1.467a11.872,11.872,0,0,0-1.264-1.255,3.139,3.139,0,0,0-1.442-.73,4.5,4.5,0,0,0-.848-.119h-.67v5.649q0,.959.059,1.6a2.112,2.112,0,0,0,.322,1.1,2.545,2.545,0,0,0,.9.772,4.114,4.114,0,0,0,1.866.45v.288h-9.331v-.246a8.161,8.161,0,0,0,1.4-.348,2.274,2.274,0,0,0,1.052-.7,1.323,1.323,0,0,0,.238-.526,5.443,5.443,0,0,0,.127-.789c0-.288.051-.6.076-.933s0-.653,0-.959V237.229a5.62,5.62,0,0,0-.059-1.018,5.437,5.437,0,0,0-.144-.848,1.238,1.238,0,0,0-.28-.568,2.188,2.188,0,0,0-.976-.628,9.963,9.963,0,0,0-1.323-.28V233.6h8.033q1.951,0,3.469.119a6.931,6.931,0,0,1,2.765.789,5.616,5.616,0,0,1,2.07,1.824,5.03,5.03,0,0,1,.789,2.9,4.606,4.606,0,0,1-.39,1.934A5.176,5.176,0,0,1,228,242.683a6.388,6.388,0,0,1-1.527,1.12,11.74,11.74,0,0,1-1.832.789v.085a3.741,3.741,0,0,1,.959.755,10.669,10.669,0,0,1,.908,1.111l1.646,2.392,1.586,2.273a8.932,8.932,0,0,0,2.1,2.214,5.624,5.624,0,0,0,2.392.908v.288Zm-21.826,0H188.66v-.229a5.939,5.939,0,0,0,1.357-.382,2.765,2.765,0,0,0,1.035-.73,1.306,1.306,0,0,0,.229-.509c.059-.221.11-.484.161-.772a8.93,8.93,0,0,0,.1-.916q0-.484,0-.95V237.2a6.052,6.052,0,0,0-.059-1.052,5.46,5.46,0,0,0-.144-.848,1.247,1.247,0,0,0-.28-.568,1.985,1.985,0,0,0-.933-.594,12.262,12.262,0,0,0-1.281-.246v-.288h16.117l1.985,4.81-.288.144a14.2,14.2,0,0,0-4.428-3.961,7.1,7.1,0,0,0-1.832-.407,25.835,25.835,0,0,0-3.266-.178q-.611,0-1.264.042a8.1,8.1,0,0,0-.95.1q-.059.467-.1,1.926t-.042,3.393v4.173h1.595l1.137-.076a6.472,6.472,0,0,0,.95-.127,5.089,5.089,0,0,0,1.459-.551,3.2,3.2,0,0,0,.95-.848,4.157,4.157,0,0,0,.585-1.154,13.79,13.79,0,0,0,.39-1.476h.348V248.6h-.348a9.995,9.995,0,0,0-.713-1.926,5.09,5.09,0,0,0-1.009-1.484,3.894,3.894,0,0,0-1.12-.67,5.031,5.031,0,0,0-1.527-.322l-.73-.042h-1.959a9.1,9.1,0,0,0-.059,1.2V250.4a14.531,14.531,0,0,0,.1,1.764,2.791,2.791,0,0,0,.331,1.238,1.841,1.841,0,0,0,1.255.585,12.46,12.46,0,0,0,2.155.178h1.264a9.676,9.676,0,0,0,1.62-.144,6.346,6.346,0,0,0,1.7-.45,6.039,6.039,0,0,0,1.518-.95,9.593,9.593,0,0,0,1.417-1.5,20.032,20.032,0,0,0,1.417-2.138l.322.085ZM179.94,236.423a5.3,5.3,0,0,0-3.741-2.418,11.207,11.207,0,0,0-1.629-.119,7.633,7.633,0,0,0-.95.042l-.543.076a1.966,1.966,0,0,1-.076.305,2,2,0,0,0-.076.331,3.783,3.783,0,0,1-.059.568,6.858,6.858,0,0,0-.059,1.035q0,1.018-.042,2.477t0,2.859v3.732q1.2,0,2.239-.076a7.319,7.319,0,0,0,1.951-.39,5.454,5.454,0,0,0,2.859-2.112,5.785,5.785,0,0,0,.992-3.308,5.353,5.353,0,0,0-.848-3m3.656,5.09a5.582,5.582,0,0,1-.916,1.544,5.786,5.786,0,0,1-1.323,1.154,8.185,8.185,0,0,1-1.544.772,9.55,9.55,0,0,1-1.747.441q-.933.144-1.875.221t-1.849.076h-1.629v4.572q0,.933.059,1.6a2.129,2.129,0,0,0,.322,1.111,2.452,2.452,0,0,0,.908.755,4.24,4.24,0,0,0,1.866.441v.288h-9.331v-.254a8.17,8.17,0,0,0,1.4-.348,2.274,2.274,0,0,0,1.052-.7,1.332,1.332,0,0,0,.229-.526,5.568,5.568,0,0,0,.127-.789q.042-.433.076-.933a6.777,6.777,0,0,0,0-.959V237.229a5.62,5.62,0,0,0-.059-1.018,5.428,5.428,0,0,0-.144-.848,1.23,1.23,0,0,0-.28-.568,2.18,2.18,0,0,0-1.12-.628q-.687-.161-1.467-.28V233.6h8.245a27.234,27.234,0,0,1,3.393.187,7.72,7.72,0,0,1,2.8.916,5.938,5.938,0,0,1,2.129,1.985,5.378,5.378,0,0,1,.848,3.028,5.208,5.208,0,0,1-.348,1.951m-25.974-1.222a11.359,11.359,0,0,0-1.366-3.274,7.8,7.8,0,0,0-2.29-2.392,5.675,5.675,0,0,0-3.232-.916,5.794,5.794,0,0,0-3.274.916,7.491,7.491,0,0,0-2.273,2.375,11.028,11.028,0,0,0-1.306,3.308,16.728,16.728,0,0,0-.424,3.749,15.472,15.472,0,0,0,.467,3.817,10.611,10.611,0,0,0,1.383,3.232,7.244,7.244,0,0,0,2.3,2.248,6.057,6.057,0,0,0,3.215.848,5.488,5.488,0,0,0,3.189-.933,7.88,7.88,0,0,0,2.256-2.4,11.562,11.562,0,0,0,1.357-3.308,15.319,15.319,0,0,0,.45-3.673,14.736,14.736,0,0,0-.45-3.588m3.189,7.863a10.824,10.824,0,0,1-2.375,3.435A10.492,10.492,0,0,1,154.78,254a11.808,11.808,0,0,1-8.44,0,10.51,10.51,0,0,1-3.3-2.307,10.3,10.3,0,0,1-2.35-3.393,11.5,11.5,0,0,1,.042-8.83,10.12,10.12,0,0,1,2.435-3.393,10.713,10.713,0,0,1,3.58-2.129,12.622,12.622,0,0,1,4.326-.746,10.832,10.832,0,0,1,4.445.848,10.1,10.1,0,0,1,3.334,2.35,10.264,10.264,0,0,1,2.1,3.393,11.266,11.266,0,0,1,.729,4.021,10.561,10.561,0,0,1-.848,4.309M128.28,236.287a5.022,5.022,0,0,0-2.129-1.807,6.369,6.369,0,0,0-1.467-.467,8.754,8.754,0,0,0-1.62-.144h-.992l-.585.059a.509.509,0,0,1-.059.305,2.435,2.435,0,0,0-.042.331q0,.2,0,.568t-.042,1.035q0,1.018-.042,2.3t0,2.477v3.206q1.2,0,2.231-.1a9.075,9.075,0,0,0,1.993-.424,5.336,5.336,0,0,0,1.6-.789,4.59,4.59,0,0,0,1.094-1.12,4.658,4.658,0,0,0,.628-1.357,5.6,5.6,0,0,0,.2-1.518,4.708,4.708,0,0,0-.73-2.6m2.884,18.153-.382-.39-.263-.305a5.768,5.768,0,0,1-.365-.509q-.221-.331-.687-1-.551-.848-.975-1.476t-.848-1.3q-.441-.636-.95-1.3t-1.2-1.467a11.953,11.953,0,0,0-1.264-1.255,3.138,3.138,0,0,0-1.442-.73,4.506,4.506,0,0,0-.848-.119h-.67V250.2q0,.959.059,1.6a2.112,2.112,0,0,0,.322,1.1,2.545,2.545,0,0,0,.908.772,4.106,4.106,0,0,0,1.866.45v.288h-9.331v-.178a8.164,8.164,0,0,0,1.4-.348,2.274,2.274,0,0,0,1.052-.7,1.324,1.324,0,0,0,.229-.526,5.556,5.556,0,0,0,.136-.789q.042-.433.076-.933a6.777,6.777,0,0,0,0-.959V237.229a8.356,8.356,0,0,0-.059-1.018,5.529,5.529,0,0,0-.144-.848,1.238,1.238,0,0,0-.229-.636,2.188,2.188,0,0,0-.976-.628,9.958,9.958,0,0,0-1.323-.28v-.288h8.016q1.951,0,3.469.119a6.931,6.931,0,0,1,2.765.789,5.608,5.608,0,0,1,2.07,1.824,5.03,5.03,0,0,1,.789,2.9,4.606,4.606,0,0,1-.39,1.934,5.157,5.157,0,0,1-1.052,1.518,6.387,6.387,0,0,1-1.527,1.12,11.772,11.772,0,0,1-1.832.789v.085a3.741,3.741,0,0,1,.959.755,10.68,10.68,0,0,1,.908,1.111l1.646,2.392,1.586,2.273a8.932,8.932,0,0,0,2.1,2.214,5.633,5.633,0,0,0,2.307.882v.288Zm-24.778-17.975a5.3,5.3,0,0,0-3.741-2.418,11.205,11.205,0,0,0-1.629-.119,7.631,7.631,0,0,0-.95.042l-.543.076a1.967,1.967,0,0,1-.076.305,2,2,0,0,0-.076.331,3.781,3.781,0,0,1-.059.568,6.86,6.86,0,0,0-.059,1.035q0,1.018-.042,2.477t0,2.859v3.732q1.2,0,2.248-.076a7.319,7.319,0,0,0,1.951-.39,5.454,5.454,0,0,0,2.859-2.112,5.785,5.785,0,0,0,.992-3.308,5.353,5.353,0,0,0-.848-3m3.656,5.09a5.564,5.564,0,0,1-.916,1.544,5.794,5.794,0,0,1-1.323,1.154,8.185,8.185,0,0,1-1.544.772,9.553,9.553,0,0,1-1.747.441q-.933.144-1.875.221t-1.849.076H99.278v4.572q0,.933.059,1.6a2.129,2.129,0,0,0,.322,1.111,2.451,2.451,0,0,0,.908.755,4.241,4.241,0,0,0,1.866.441v.288H93.1v-.254a8.169,8.169,0,0,0,1.4-.348,2.274,2.274,0,0,0,1.052-.7,1.332,1.332,0,0,0,.229-.526,5.572,5.572,0,0,0,.127-.789c0-.288.051-.6.076-.933s0-.653,0-.959V237.229a5.62,5.62,0,0,0-.059-1.018,5.438,5.438,0,0,0-.144-.848,1.23,1.23,0,0,0-.246-.636,2.18,2.18,0,0,0-1.12-.628q-.687-.161-1.467-.28v-.288H101.2a27.219,27.219,0,0,1,3.393.187,7.719,7.719,0,0,1,2.8.916,5.938,5.938,0,0,1,2.129,1.985,5.378,5.378,0,0,1,.848,3.028,5.208,5.208,0,0,1-.348,1.951" transform="translate(765.896 359.592)"/></svg>