<svg xmlns="http://www.w3.org/2000/svg" viewBox="780 654.9 345.116 10.749"><defs><style>.a{fill:#fff;}</style></defs><path class="a" d="M343.895,306.513,341,311.026l-2.9-4.5h-1.23l3.6,5.446v3.724h1.052V312l3.6-5.454ZM327.863,310.8V307.4h2.545a2.545,2.545,0,0,1,1.595.416,1.544,1.544,0,0,1,.517,1.264q0,1.7-2.1,1.7Zm4.988,1.781a2.155,2.155,0,0,0-.475-.789,1.23,1.23,0,0,0-.679-.339,2.545,2.545,0,0,0,1.357-.848,2.409,2.409,0,0,0,.466-1.51,2.324,2.324,0,0,0-.789-1.892,3.461,3.461,0,0,0-2.265-.653h-3.631v9.161h1.043v-4h2.29a2.248,2.248,0,0,1,1.035.2,1.315,1.315,0,0,1,.568.763l1.128,3.054h1.12Zm-14.683,2.307a2.765,2.765,0,0,1-2.273-.992,4.326,4.326,0,0,1-.848-2.808,4.241,4.241,0,0,1,.848-2.791,3.113,3.113,0,0,1,4.538,0,5.268,5.268,0,0,1,0,5.6,2.757,2.757,0,0,1-2.256.993m0,.9a4.157,4.157,0,0,0,2.206-.568,3.766,3.766,0,0,0,1.442-1.629,6.4,6.4,0,0,0,0-4.979,3.69,3.69,0,0,0-1.442-1.62,4.648,4.648,0,0,0-4.445,0,3.7,3.7,0,0,0-1.442,1.62,6.43,6.43,0,0,0,0,4.988,3.715,3.715,0,0,0,1.442,1.629,4.19,4.19,0,0,0,2.214.568m-11.494,0a4.6,4.6,0,0,0,1.79-.322,2.646,2.646,0,0,0,1.171-.925,2.307,2.307,0,0,0,.416-1.357,1.807,1.807,0,0,0-.45-1.281,2.782,2.782,0,0,0-1.128-.721,18.677,18.677,0,0,0-1.858-.517,5.208,5.208,0,0,1-1.62-.6,1.162,1.162,0,0,1-.526-1.043,1.484,1.484,0,0,1,.6-1.255,2.707,2.707,0,0,1,1.7-.458,3.962,3.962,0,0,1,1.442.255,4.565,4.565,0,0,1,1.306.848l.407-.848a3.69,3.69,0,0,0-1.391-.848,5.192,5.192,0,0,0-1.773-.3,4.242,4.242,0,0,0-1.756.331,2.706,2.706,0,0,0-1.162.933,2.393,2.393,0,0,0-.407,1.383,2.01,2.01,0,0,0,.424,1.332,2.7,2.7,0,0,0,1.1.78,11.448,11.448,0,0,0,1.7.5,11.813,11.813,0,0,1,1.281.322,2,2,0,0,1,.755.458,1.018,1.018,0,0,1,.288.755,1.417,1.417,0,0,1-.594,1.213,2.875,2.875,0,0,1-1.7.433,5.029,5.029,0,0,1-1.646-.246,4.344,4.344,0,0,1-1.391-.848l-.4.848a4.877,4.877,0,0,0,3.393,1.162M298.9,306.5h-1.052v9.161H298.9Zm-9.212,7.829L286.3,306.5h-1.12l4,9.161h.925l4-9.161H293Zm-14.259.441v-7.354h1.951q3.554,0,3.554,3.665a3.851,3.851,0,0,1-.891,2.765,3.537,3.537,0,0,1-2.664.925Zm-1.052.9h3.071a4.173,4.173,0,0,0,4.6-4.6,4.547,4.547,0,0,0-1.2-3.393,4.615,4.615,0,0,0-3.393-1.188h-3.037Zm-8.364-7.914,2.019,4.708H264Zm4.47,7.94-4.021-9.161h-.959l-4.021,9.161h1.094l1.018-2.358h4.776l1,2.358Zm-22.649-.755a2.188,2.188,0,0,1-1.417-.424,1.391,1.391,0,0,1-.526-1.145,1.806,1.806,0,0,1,.373-1.111,4.647,4.647,0,0,1,1.272-1.052l2.443,2.74a2.774,2.774,0,0,1-2.146.992m.331-7.7a1.111,1.111,0,0,1,.848.305,1.06,1.06,0,0,1,.305.789,1.289,1.289,0,0,1-.322.848,5.092,5.092,0,0,1-1.171.916,5.851,5.851,0,0,1-.7-.942,1.476,1.476,0,0,1-.178-.7,1.145,1.145,0,0,1,.348-.848,1.273,1.273,0,0,1,.916-.331m2.952,6.608a5.887,5.887,0,0,0,.679-1.586,8.169,8.169,0,0,0,.271-1.934h-.925a6.439,6.439,0,0,1-.645,2.833l-2.155-2.434a5.786,5.786,0,0,0,1.451-1.213,1.968,1.968,0,0,0,.416-1.222,1.7,1.7,0,0,0-.551-1.349,2.171,2.171,0,0,0-1.5-.492,2.366,2.366,0,0,0-1.629.543,1.841,1.841,0,0,0-.619,1.451,2.121,2.121,0,0,0,.238.976,6.19,6.19,0,0,0,.848,1.162,5.66,5.66,0,0,0-1.62,1.332,2.4,2.4,0,0,0-.5,1.484,2.171,2.171,0,0,0,.365,1.247,2.408,2.408,0,0,0,1.035.848,3.7,3.7,0,0,0,1.544.305,3.648,3.648,0,0,0,1.5-.305,3.918,3.918,0,0,0,1.247-.848,6.1,6.1,0,0,0,1.8,1.222l.568-.721a5.454,5.454,0,0,1-1.8-1.247m-18.764,1.849v-8.364h3.189v-.9h-7.439v.9h3.189v8.262Zm-9.093-1.79-5.522-7.38h-.848v9.161h.992V308.4l5.522,7.38h.848v-9.161h-1Zm-10.671,1.79v-.848h-4.827V311.6H212.3v-.848h-4.479v-3.189h4.742v-.848H206.79v9.161Zm-15.006-1.366-3.393-7.906H193.4v9.161h.975v-6.786l2.994,6.786h.746l2.969-6.786v6.786h.975v-9.161h-.848Zm-14.217-3.639v-3.393h2.545a2.324,2.324,0,0,1,1.527.433,1.544,1.544,0,0,1,.517,1.255,1.569,1.569,0,0,1-.551,1.23,2.307,2.307,0,0,1-1.527.441Zm-1.052,4.9h1.052v-4.029h2.6a3.249,3.249,0,0,0,2.2-.687,2.63,2.63,0,0,0,0-3.766,3.266,3.266,0,0,0-2.205-.679h-3.639Zm-8.661-.8a2.765,2.765,0,0,1-2.273-.992,4.326,4.326,0,0,1-.848-2.808,4.241,4.241,0,0,1,.848-2.791,3.113,3.113,0,0,1,4.538,0,5.268,5.268,0,0,1,0,5.6,2.757,2.757,0,0,1-2.256.993m0,.9a4.157,4.157,0,0,0,2.205-.568,3.767,3.767,0,0,0,1.442-1.629,6.4,6.4,0,0,0,0-4.979,3.69,3.69,0,0,0-1.442-1.62,4.648,4.648,0,0,0-4.445,0,3.7,3.7,0,0,0-1.442,1.62,6.413,6.413,0,0,0,0,4.988,3.716,3.716,0,0,0,1.442,1.629,4.19,4.19,0,0,0,2.214.568m-7.287-.1v-.9h-4.589V306.53h-.992v9.161Zm-9.984,0v-.848h-4.742v-3.334h4.479v-.848h-4.479v-3.189h4.742v-.848h-5.777v9.161Zm-13.937-1.34-3.393-7.829h-1.12l4,9.161h.925l4-9.161H145.9Zm-7.634,1.34v-.848h-4.742v-3.334h4.479v-.848h-4.479v-3.189h4.742v-.848H129.08v9.161Zm-16.88-.9v-7.371h1.951q3.554,0,3.554,3.665a3.851,3.851,0,0,1-.891,2.765,3.538,3.538,0,0,1-2.664.925Zm-1.052.9H120a4.173,4.173,0,0,0,4.6-4.6,4.547,4.547,0,0,0-1.2-3.393A4.614,4.614,0,0,0,120,306.513h-3.071Zm-11.74-1.332v1.323h.619a2.146,2.146,0,0,1-.568,1.111l.492.373a2.46,2.46,0,0,0,.78-1.866v-.942Zm-5.938,1.323v-8.262h3.189v-.9H95.006v.9h3.181v8.262Zm-9.093-1.79-5.522-7.38h-.848v9.161h1.043v-7.38l5.522,7.38H91.2v-9.161H90.171Zm-10.671,1.79v-.848H74.758V311.5h4.487v-.848H74.758v-3.189H79.5v-.848H73.714v9.161ZM64.57,314.419l-3.495-7.906h-.848v9.161H61.2v-6.786l2.994,6.786h.746l2.969-6.786v6.786h.976v-9.161h-.848Zm-11.384,1.264v-8.262h3.189v-.9H48.953v.9h3.189v8.262Zm-10.773.1a4.6,4.6,0,0,0,1.79-.322,2.647,2.647,0,0,0,1.213-.916,2.307,2.307,0,0,0,.407-1.357,1.807,1.807,0,0,0-.45-1.281,2.774,2.774,0,0,0-1.12-.721,18.654,18.654,0,0,0-1.858-.517,5.208,5.208,0,0,1-1.62-.6,1.162,1.162,0,0,1-.526-1.043,1.484,1.484,0,0,1,.6-1.255,2.706,2.706,0,0,1,1.7-.458,3.962,3.962,0,0,1,1.442.254,4.565,4.565,0,0,1,1.306.848l.407-.848a3.69,3.69,0,0,0-1.391-.848,5.192,5.192,0,0,0-1.773-.3,4.242,4.242,0,0,0-1.756.331,2.706,2.706,0,0,0-1.162.933,2.392,2.392,0,0,0-.416,1.383,2.01,2.01,0,0,0,.424,1.332,2.7,2.7,0,0,0,1.086.755,11.43,11.43,0,0,0,1.7.5,11.885,11.885,0,0,1,1.255.348,2,2,0,0,1,.755.458,1.018,1.018,0,0,1,.288.755,1.417,1.417,0,0,1-.594,1.213,2.876,2.876,0,0,1-1.7.433,5.031,5.031,0,0,1-1.646-.246,4.343,4.343,0,0,1-1.383-.848l-.4.848a4.877,4.877,0,0,0,3.393,1.162m-7.117-.1v-.848H30.6v-3.334h4.487v-.848H30.6v-3.19h4.742v-.848H29.554v9.161Zm-13.937-1.34L17.941,306.5h-.976l4,9.161h.925l4-9.161H24.752Zm-9.187-.45L6.625,306.5H5.777v9.161H6.871v-7.38l5.522,7.38h.848V306.5H12.215ZM.984,306.5H0v9.161H1.052Z" transform="translate(780 348.482)"/></svg>