<svg xmlns="http://www.w3.org/2000/svg" viewBox="0 0 81.43 103.55"><defs><style>.a{fill:#ebeced;}</style></defs><title>Enigma Light Pattern</title><path class="a" d="M64.92,53.39a.48.48,0,0,1-.24-.9l21-12.09a.48.48,0,1,1,.48.84l-21,12.09a.48.48,0,0,1-.24.06" transform="translate(-5.16)"/><path class="a" d="M86,78.43a.48.48,0,0,1-.24-.06l-21-12.09a.48.48,0,0,1,.48-.84l21,12.09a.48.48,0,0,1-.24.9" transform="translate(-5.16)"/><path class="a" d="M64.88,103.55a.48.48,0,0,1-.24-.9l21-12.09a.48.48,0,1,1,.48.84l-21,12.09a.48.48,0,0,1-.24.06" transform="translate(-5.16)"/><path class="a" d="M86.11,28.19a.48.48,0,0,1-.24-.06L64.83,16a.48.48,0,0,1,.48-.84l21,12.09a.48.48,0,0,1-.24.9" transform="translate(-5.16)"/><path class="a" d="M21.32,78.43a.48.48,0,0,1-.24-.9l21-12.09a.48.48,0,1,1,.48.84l-21,12.09a.48.48,0,0,1-.24.06" transform="translate(-5.16)"/><path class="a" d="M42.36,103.46a.48.48,0,0,1-.24-.06l-21-12.09a.48.48,0,0,1,.48-.84l21,12.09a.48.48,0,0,1-.24.9" transform="translate(-5.16)"/><path class="a" d="M21.39,28.19a.48.48,0,0,1-.24-.9l21-12.09a.48.48,0,1,1,.48.84l-21,12.09a.48.48,0,0,1-.24.06" transform="translate(-5.16)"/><path class="a" d="M42.43,53.22a.48.48,0,0,1-.24-.06l-21-12.09a.48.48,0,0,1,.48-.84l21,12.09a.48.48,0,0,1-.24.9" transform="translate(-5.16)"/><path class="a" d="M59,59.35V54.84a22.48,22.48,0,0,0-5.3-.51h-.58a21.52,21.52,0,0,0-4.73.51v7.68c0,.1,0,.2,0,.3.25,3.82,5.29,5.85,5.29,5.85s4.07-1.64,5.08-4.75a17.76,17.76,0,0,0-2.23-.5,5.88,5.88,0,0,1-2.85,2.47s-3-1.22-3.09-3.53a23.36,23.36,0,0,1,3.1-.2,22,22,0,0,1,3.92.32h.13l.14,0h0l.26.06h0c.27.06.55.13.81.21,0-.1,0-.2,0-.3V60.33h0C58,60.11,57,60,56.83,60h0a29,29,0,0,0-6.19,0V57.25A12.51,12.51,0,0,1,53.4,57h.34a13.08,13.08,0,0,1,3.09.3V59c.21,0,1.15.12,2.21.33" transform="translate(-5.16)"/><path class="a" d="M56.34,53l-.89-1.45.89-1.18a22.75,22.75,0,0,0-4.95,0V53a23.32,23.32,0,0,1,4.95,0" transform="translate(-5.16)"/><path class="a" d="M59.19,9.11V4.6a22.53,22.53,0,0,0-5.3-.51h-.58a21.57,21.57,0,0,0-4.73.51v7.68c0,.1,0,.2,0,.3.25,3.82,5.29,5.85,5.29,5.85S58,16.78,59,13.68a17.76,17.76,0,0,0-2.23-.5,5.88,5.88,0,0,1-2.85,2.47s-3-1.22-3.09-3.53a23.55,23.55,0,0,1,3.1-.19,22,22,0,0,1,3.92.32h.13l.14,0h0l.26.05h0c.27.06.55.13.81.21,0-.1,0-.2,0-.3V10.09h0c-1.08-.22-2-.32-2.21-.34h0a29,29,0,0,0-6.19,0V7a12.51,12.51,0,0,1,2.76-.3h.34A13.08,13.08,0,0,1,57,7V8.79c.21,0,1.15.12,2.21.33" transform="translate(-5.16)"/><path class="a" d="M56.49,2.78,55.6,1.33,56.49.15a22.75,22.75,0,0,0-4.95,0V2.75a23.32,23.32,0,0,1,4.95,0" transform="translate(-5.16)"/><path class="a" d="M15.77,84.47V80a22.48,22.48,0,0,0-5.3-.51H9.89A21.52,21.52,0,0,0,5.16,80v7.68c0,.1,0,.2,0,.3.25,3.82,5.29,5.85,5.29,5.85s4.07-1.64,5.08-4.75a17.76,17.76,0,0,0-2.23-.5A5.88,5.88,0,0,1,10.46,91s-3-1.22-3.09-3.53a23.36,23.36,0,0,1,3.1-.2,22,22,0,0,1,3.92.32h.13l.14,0h0l.26.06h0c.27.06.55.13.81.21,0-.1,0-.2,0-.3V85.45h0c-1.08-.22-2-.32-2.21-.34h0a29,29,0,0,0-6.19,0V82.37a12.59,12.59,0,0,1,2.76-.3h.34a13.08,13.08,0,0,1,3.09.3v1.77c.21,0,1.15.12,2.21.33" transform="translate(-5.16)"/><path class="a" d="M13.07,78.14l-.89-1.45.89-1.18a22.75,22.75,0,0,0-4.95,0v2.63a23.32,23.32,0,0,1,4.95,0" transform="translate(-5.16)"/><path class="a" d="M15.92,34.23V29.72a22.48,22.48,0,0,0-5.3-.51H10a21.52,21.52,0,0,0-4.73.51V37.4c0,.1,0,.2,0,.3.25,3.82,5.29,5.85,5.29,5.85s4.07-1.64,5.08-4.75a17.76,17.76,0,0,0-2.23-.5,5.88,5.88,0,0,1-2.85,2.47s-3-1.22-3.09-3.53a23.54,23.54,0,0,1,3.1-.19,22,22,0,0,1,3.92.32h.13l.14,0h0l.26.06h0c.27.06.55.13.81.21,0-.1,0-.2,0-.3V35.21h0c-1.08-.22-2-.32-2.21-.34h0a29,29,0,0,0-6.19,0V32.13a12.51,12.51,0,0,1,2.76-.3h.34a13.08,13.08,0,0,1,3.09.3V33.9c.21,0,1.15.12,2.21.33" transform="translate(-5.16)"/><path class="a" d="M13.23,27.9l-.89-1.45.89-1.18a22.75,22.75,0,0,0-4.95,0v2.63a23.32,23.32,0,0,1,4.95,0" transform="translate(-5.16)"/></svg>