<svg xmlns="http://www.w3.org/2000/svg" viewBox="6458 2298.914 184.121 54.086"><defs><style>.a{fill:#34434a;}.b{fill:#ed1c24;}</style></defs><g transform="translate(6017 2204)"><path class="a" d="M196.332,25.2c.257.642.514,1.349.835,2.184.321.771.642,1.606.963,2.44s.642,1.734.963,2.569H192.03c.45-1.092.9-2.184,1.284-3.083.385-.963.771-1.8,1.092-2.569s.578-1.413.835-1.927a11.42,11.42,0,0,1,.514-1.156c.128.321.321.9.578,1.541M207.7,40.808v-.321a3.067,3.067,0,0,1-1.156-.257,3.641,3.641,0,0,1-.835-.514,4.154,4.154,0,0,1-.514-.578,3.8,3.8,0,0,0-.257-.385c-.257-.514-.45-.963-.642-1.349a11.875,11.875,0,0,1-.578-1.477c-.45-1.22-.9-2.376-1.349-3.6s-.9-2.5-1.413-3.789-.963-2.633-1.541-4.046c-.514-1.413-1.092-2.89-1.67-4.5h-.128a5.922,5.922,0,0,1-.321.514,4.5,4.5,0,0,1-.514.642,3.366,3.366,0,0,1-.706.642,4.1,4.1,0,0,1-.9.514l.257.642c-.45,1.092-.963,2.184-1.477,3.4l-1.541,3.661c-.514,1.22-1.028,2.376-1.541,3.532s-.963,2.119-1.349,3.018c-.45.963-.835,1.67-1.092,2.184a7.732,7.732,0,0,1-.642.963,6.8,6.8,0,0,1-.642.45,3.371,3.371,0,0,1-1.284.385v.321H191.9v-.257c-.257-.064-.514-.064-.771-.128a3.621,3.621,0,0,1-.771-.257,2.241,2.241,0,0,1-.578-.385.981.981,0,0,1-.257-.642,7.747,7.747,0,0,1,.578-2.184c.257-.642.514-1.349.771-1.991s.514-1.349.835-2.055h7.578c.257.706.578,1.477.771,2.119s.45,1.284.642,1.862.321,1.028.45,1.413a2.37,2.37,0,0,1,.128.835.745.745,0,0,1-.257.642,1.333,1.333,0,0,1-.642.385,2.9,2.9,0,0,1-.706.193,1.376,1.376,0,0,1-.385.064v.257H207.7Zm-34.358,0v-.321a4.839,4.839,0,0,0,2.055-.514,2.437,2.437,0,0,0,1.092-1.028,3.682,3.682,0,0,0,.257-.9c.064-.385.064-.771.128-1.092.064-1.22.064-2.44.064-3.6V21.734q-.963,2.119-1.734,3.853c-.514,1.156-1.028,2.312-1.541,3.4s-1.028,2.248-1.541,3.4-1.092,2.44-1.734,3.853c-.064.193-.257.514-.385.9-.193.385-.321.835-.514,1.22a10.185,10.185,0,0,1-.514,1.156,3.271,3.271,0,0,0-.257.706h-.193c-.578-1.413-1.22-2.761-1.8-4.174s-1.156-2.7-1.734-3.982-1.092-2.5-1.606-3.6-.963-2.119-1.349-2.954c-.385-.9-.706-1.606-.963-2.184a10.558,10.558,0,0,1-.514-1.22V34.835c0,.9,0,1.67.064,2.312a4.251,4.251,0,0,0,.45,1.67,2.634,2.634,0,0,0,1.028,1.028,5.726,5.726,0,0,0,1.927.578v.257h-7.385v-.257a4.674,4.674,0,0,0,1.606-.578,2.649,2.649,0,0,0,.963-1.092,5.681,5.681,0,0,0,.514-1.67,22.178,22.178,0,0,0,.193-2.44c.064-.835.064-1.8.064-2.89V23.275a2.529,2.529,0,0,0-.321-1.284,2.737,2.737,0,0,0-.706-.771,2.251,2.251,0,0,0-.9-.385c-.321-.064-.578-.128-.835-.193v-.257h6.037L170.066,35.8c.835-1.8,1.67-3.6,2.44-5.395s1.477-3.4,2.119-4.817,1.156-2.633,1.541-3.6.642-1.477.706-1.67h6.037v.321a2.989,2.989,0,0,0-1.8.514,2.283,2.283,0,0,0-.835,1.092,6.209,6.209,0,0,0-.257,1.477c-.064.706-.064,1.349-.064,1.991v11.5a6.23,6.23,0,0,0,.064,1.092,2.134,2.134,0,0,0,.257.835c0,.064.064.128.193.257a3.671,3.671,0,0,0,.514.45,3.46,3.46,0,0,0,.835.45,3.237,3.237,0,0,0,1.22.193v.257h-9.7ZM150.993,31.56a1.631,1.631,0,0,0-.835.578,2.531,2.531,0,0,0-.257.963V38.56a4.459,4.459,0,0,1-.963.578c-.514.257-1.156.514-1.927.835a14.264,14.264,0,0,1-2.5.706,12.794,12.794,0,0,1-2.7.257,15.834,15.834,0,0,1-4.817-.706,9.431,9.431,0,0,1-3.6-2.055,9.044,9.044,0,0,1-2.248-3.275,11.757,11.757,0,0,1-.771-4.367,16.033,16.033,0,0,1,.128-1.606A7.151,7.151,0,0,1,131.02,27a14.781,14.781,0,0,1,.963-2.055,9.111,9.111,0,0,1,1.606-1.991,9.9,9.9,0,0,1,3.339-2.119A13.468,13.468,0,0,1,141.745,20a14.033,14.033,0,0,1,3.018.321,11.27,11.27,0,0,1,2.184.642,13.949,13.949,0,0,1,1.349.642c.321.193.514.321.514.321.064,0,.128-.128.321-.321.193-.257.385-.514.642-.835h.257v6.165h-.321a8.789,8.789,0,0,0-.963-2.44,6.061,6.061,0,0,0-1.349-1.862,6.634,6.634,0,0,0-2.312-1.541,8.419,8.419,0,0,0-3.211-.578,6.855,6.855,0,0,0-3.4.835A7.839,7.839,0,0,0,135.9,23.6a10.757,10.757,0,0,0-1.606,3.211,12.72,12.72,0,0,0-.578,3.853,15.842,15.842,0,0,0,.514,4.046,11.058,11.058,0,0,0,1.541,3.147,7.678,7.678,0,0,0,2.5,2.055,7.18,7.18,0,0,0,3.4.706,6.986,6.986,0,0,0,2.569-.45,3.978,3.978,0,0,0,1.862-1.541,4.079,4.079,0,0,0,.321-1.284c.064-.642.128-1.284.128-1.927a14.775,14.775,0,0,0-.128-1.8,2.166,2.166,0,0,0-.578-1.284,3.514,3.514,0,0,0-2.312-.9v-.257h8.349v.257a1.717,1.717,0,0,0-.9.128m-34.23,9.248v-.257a5.331,5.331,0,0,0,1.349-.385,2.934,2.934,0,0,0,1.028-.706.957.957,0,0,0,.193-.514c.064-.193.064-.45.128-.706a3.949,3.949,0,0,0,.064-.9V23.982a4.859,4.859,0,0,0-.064-.963c-.064-.321-.064-.578-.128-.771a1.21,1.21,0,0,0-.257-.578,2.1,2.1,0,0,0-.963-.706,6.939,6.939,0,0,0-1.349-.321v-.257h8.477v.257a5.364,5.364,0,0,0-1.284.321,1.589,1.589,0,0,0-1.028.9,2.3,2.3,0,0,0-.257,1.22,9.945,9.945,0,0,1-.064,1.413V38.431a2.076,2.076,0,0,0,.257,1.092,1.92,1.92,0,0,0,1.092.706,6.7,6.7,0,0,0,1.349.321v.257Zm-6.679-19.652a2.082,2.082,0,0,0-.963,1.22,5.8,5.8,0,0,0-.257,1.606c-.064.771-.064,1.606-.128,2.44s-.064,1.8-.128,2.89-.064,2.312-.064,3.532v7.771a.227.227,0,0,1-.257.257.768.768,0,0,1-.514-.257c-1.606-1.862-3.083-3.532-4.431-5.138-1.349-1.541-2.569-3.018-3.789-4.431s-2.376-2.761-3.532-4.11-2.376-2.761-3.661-4.174V34.771c0,.963,0,1.862.064,2.633a4.965,4.965,0,0,0,.385,1.734,1.771,1.771,0,0,0,.963.963,5.622,5.622,0,0,0,1.862.45v.257h-7v-.257a5.331,5.331,0,0,0,1.349-.385,2.139,2.139,0,0,0,1.092-.9,3.7,3.7,0,0,0,.514-1.734c.064-.771.128-1.734.193-2.761.064-.835.064-1.8.064-2.89V23.532a3.373,3.373,0,0,0-.385-1.349,3.041,3.041,0,0,0-.706-.835,3.924,3.924,0,0,0-.9-.45l-.963-.193V20.45h5.78l13.486,15.734V24.239a4.9,4.9,0,0,0-.257-1.606,2.5,2.5,0,0,0-1.028-1.284,5.123,5.123,0,0,0-2.055-.706v-.257h7.064v.257a4,4,0,0,0-1.8.514M83.24,40.808H65.9v-.257a5.331,5.331,0,0,0,1.349-.385,2.934,2.934,0,0,0,1.028-.706,1.883,1.883,0,0,0,.257-.514,2.4,2.4,0,0,0,.128-.771c.064-.257.064-.578.128-.9V23.917a5.191,5.191,0,0,0-.064-1.028,3.254,3.254,0,0,0-.128-.835,1.21,1.21,0,0,0-.257-.578,1.56,1.56,0,0,0-.9-.578c-.321-.064-.706-.193-1.22-.257v-.257h15.67l1.927,4.688-.257.128a13.36,13.36,0,0,0-4.3-3.853,8.84,8.84,0,0,0-1.8-.385,22.652,22.652,0,0,0-3.211-.193,7.772,7.772,0,0,0-1.22.064c-.385.064-.706.064-.9.128-.064.321-.064.9-.128,1.862,0,.963-.064,2.055-.064,3.275v4.046h1.541c.385,0,.706-.064,1.092-.064a2.977,2.977,0,0,0,.9-.128,5.956,5.956,0,0,0,1.413-.514,2.84,2.84,0,0,0,.9-.835,3.57,3.57,0,0,0,.578-1.092c.128-.45.257-.9.385-1.413h.321v8.927h-.257a8.414,8.414,0,0,0-.706-1.862,5.866,5.866,0,0,0-.963-1.477,3.072,3.072,0,0,0-1.092-.642,5,5,0,0,0-1.477-.321c-.257,0-.514-.064-.706-.064H72a5.565,5.565,0,0,0-.064,1.156v4.945a15.744,15.744,0,0,0,.128,1.734,2.79,2.79,0,0,0,.321,1.22,1.957,1.957,0,0,0,1.22.578,10.825,10.825,0,0,0,2.119.193h1.22a14.677,14.677,0,0,0,1.606-.128,4.954,4.954,0,0,0,1.67-.45,5.07,5.07,0,0,0,1.477-.9,7.543,7.543,0,0,0,1.349-1.477A19.027,19.027,0,0,0,84.4,35.477l.321.064Z" transform="translate(417.422 87.77)"/><path class="a" d="M162.3,61.778l-.578.385a4.67,4.67,0,0,0-.514.578c-.128.193-.321.45-.514.771-.128.193-.321.45-.514.771s-.45.642-.642,1.028a9,9,0,0,0-.642,1.028c-.193.321-.385.578-.514.771V70.9a1.283,1.283,0,0,0,.128.578,1.025,1.025,0,0,0,.578.45c.257.064.45.128.706.193v.128h-4.624v-.128a2.309,2.309,0,0,0,.706-.128,1.675,1.675,0,0,0,.642-.45c.064-.064.064-.128.128-.257,0-.128.064-.257.064-.385V67.429a1.11,1.11,0,0,0-.193-.257,3.016,3.016,0,0,0-.385-.578,5.358,5.358,0,0,0-.514-.771,9.5,9.5,0,0,0-.514-.835c-.193-.257-.321-.514-.514-.771a2.241,2.241,0,0,0-.385-.578c-.193-.321-.385-.578-.514-.771a5.556,5.556,0,0,0-.45-.642,2.049,2.049,0,0,0-.45-.385c-.128-.128-.321-.128-.514-.193v-.128h4.56v.128a1.093,1.093,0,0,0-.45.064,1.191,1.191,0,0,0-.45.128,1.4,1.4,0,0,0-.321.193.491.491,0,0,0-.128.321,1.479,1.479,0,0,0,.193.578c.128.257.321.514.45.835a5.649,5.649,0,0,1,.385.642c.128.257.321.514.514.835.193.257.385.578.578.9s.385.578.514.835c.128-.193.321-.45.514-.706.193-.321.385-.578.578-.9s.385-.578.578-.9a4.121,4.121,0,0,0,.385-.642c.064-.064.128-.193.193-.257.064-.128.128-.193.193-.321a.913.913,0,0,0,.128-.385.7.7,0,0,0,.064-.321.913.913,0,0,0-.128-.385,1.4,1.4,0,0,0-.321-.193c-.128-.064-.257-.064-.385-.128-.128,0-.321-.064-.45-.064V61.65h3.468v.128a.488.488,0,0,0-.642,0m-11.046,2.44c-.064-.193-.193-.385-.257-.578-.128-.193-.193-.385-.321-.578s-.257-.321-.321-.45c-.128-.128-.193-.257-.257-.321a1.531,1.531,0,0,0-.706-.385,3.887,3.887,0,0,0-.963-.128h-1.991V70.9a1.283,1.283,0,0,0,.128.578,1.178,1.178,0,0,0,.642.45l.771.193v.128h-4.881v-.128a3.223,3.223,0,0,0,.771-.128,1.647,1.647,0,0,0,.706-.514c.064-.064.064-.128.128-.257,0-.128.064-.257.064-.385V61.778h-1.927a3.887,3.887,0,0,0-.963.128,1.457,1.457,0,0,0-.706.45,1.4,1.4,0,0,0-.257.321c-.128.128-.193.321-.321.45a2.254,2.254,0,0,0-.321.514,2.281,2.281,0,0,0-.257.578l-.128-.064.45-2.89c.257.064.45.064.642.128.193,0,.45.064.835.064h7.642c.321,0,.578-.064.835-.064.193-.064.45-.128.642-.193l.514,2.954ZM134.488,62.87a3.2,3.2,0,0,0-1.092-.963,3.62,3.62,0,0,0-.771-.257,3.393,3.393,0,0,0-.835-.064h-.835v5.33a6.98,6.98,0,0,0,1.156-.064c.385-.064.706-.128,1.028-.193.321-.128.578-.257.835-.385a2.453,2.453,0,0,0,.578-.578,2.374,2.374,0,0,0,.321-.706,3.223,3.223,0,0,0,.128-.771,4.214,4.214,0,0,0-.514-1.349m1.541,9.376-.193-.193c-.064-.064-.064-.128-.128-.128a.886.886,0,0,1-.193-.257,2.106,2.106,0,0,0-.385-.514,5.356,5.356,0,0,1-.514-.771,5.554,5.554,0,0,0-.45-.642,4.5,4.5,0,0,0-.514-.642c-.193-.257-.385-.45-.642-.771a6.056,6.056,0,0,0-.642-.642,2.171,2.171,0,0,0-.771-.385,1.254,1.254,0,0,0-.45-.064h-.321v3.789a.785.785,0,0,0,.193.578,1.393,1.393,0,0,0,.45.385,3.478,3.478,0,0,0,.963.257v.128h-4.817v-.128c.257-.064.514-.128.706-.193a.8.8,0,0,0,.514-.385c.064-.064.064-.128.128-.257,0-.128.064-.257.064-.385a1.6,1.6,0,0,1,.064-.514V62.806c0-.193-.064-.321-.064-.45-.064-.128-.064-.257-.128-.321a.882.882,0,0,0-.514-.321,1.982,1.982,0,0,0-.706-.128v-.128h4.11a15.1,15.1,0,0,1,1.8.064,4.552,4.552,0,0,1,1.413.385,3.931,3.931,0,0,1,1.092.963,2.946,2.946,0,0,1,.193,2.5,2.309,2.309,0,0,1-.514.771,3.815,3.815,0,0,1-1.734.963v.064a1.347,1.347,0,0,1,.514.385c.128.193.321.385.45.578.257.385.514.771.835,1.22s.578.835.835,1.156a4.775,4.775,0,0,0,1.092,1.156,2.543,2.543,0,0,0,1.22.45v.128Zm-11.3,0h-9.248v-.128c.257-.064.514-.128.706-.193a1,1,0,0,0,.514-.385c.064-.064.064-.128.128-.257,0-.128.064-.257.064-.385s.064-.321.064-.45V62.741c0-.193-.064-.321-.064-.45-.064-.128-.064-.257-.128-.321a.882.882,0,0,0-.514-.321c-.193-.064-.385-.064-.642-.128v-.128h8.349l1.028,2.5-.128.064a8.028,8.028,0,0,0-2.312-2.055,6.158,6.158,0,0,0-.963-.193,12.923,12.923,0,0,0-1.67-.064h-.642c-.257,0-.385.064-.514.064,0,.193-.064.514-.064,1.028v3.917h.835a1.778,1.778,0,0,0,.578-.064c.193,0,.385-.064.514-.064a5.356,5.356,0,0,0,.771-.257,1.731,1.731,0,0,0,.514-.45,2.6,2.6,0,0,0,.321-.578c.064-.257.128-.45.193-.771h.193v4.752h-.193a4.107,4.107,0,0,0-.385-1.028,4,4,0,0,0-.514-.771,2.6,2.6,0,0,0-.578-.321l-.771-.193h-1.413v3.211a3.949,3.949,0,0,0,.064.9.959.959,0,0,0,.193.642.988.988,0,0,0,.642.321,5.876,5.876,0,0,0,1.092.064h.642c.257,0,.514-.064.835-.064a3.681,3.681,0,0,0,.9-.257,2.687,2.687,0,0,0,.771-.514,2.738,2.738,0,0,0,.706-.771c.257-.321.45-.706.706-1.092l.193.064Zm-13.743-9.312a3.519,3.519,0,0,0-1.156-1.028,3.62,3.62,0,0,0-.771-.257,3.662,3.662,0,0,0-.835-.064h-.514c-.128,0-.193,0-.257.064,0,.064,0,.128-.064.128a.236.236,0,0,1-.064.193v5.523a6.98,6.98,0,0,0,1.156-.064,2.662,2.662,0,0,0,1.028-.193,2.587,2.587,0,0,0,1.477-1.092,3.23,3.23,0,0,0,.514-1.734,4.053,4.053,0,0,0-.514-1.477m1.862,2.633a2.221,2.221,0,0,1-.45.771,2.007,2.007,0,0,1-.706.578,2.17,2.17,0,0,1-.771.385,3.681,3.681,0,0,1-.9.257c-.321.064-.642.064-.963.128-.321,0-.642.064-.963.064h-.835V70.9a.785.785,0,0,0,.193.578,1.393,1.393,0,0,0,.45.385,3.477,3.477,0,0,0,.963.257v.128h-4.817v-.128c.257-.064.514-.128.706-.193a.8.8,0,0,0,.514-.385c.064-.064.064-.128.128-.257,0-.128.064-.257.064-.385a1.6,1.6,0,0,1,.064-.514V62.677c0-.193-.064-.321-.064-.45-.064-.128-.064-.257-.128-.321a.865.865,0,0,0-.578-.321,3.223,3.223,0,0,0-.771-.128v-.128h4.3a14.773,14.773,0,0,1,1.8.128,5.639,5.639,0,0,1,1.477.45,2.8,2.8,0,0,1,1.092,1.028,2.56,2.56,0,0,1,.45,1.541,4.554,4.554,0,0,1-.257,1.092m-13.422-.642a4.379,4.379,0,0,0-.706-1.67,4.212,4.212,0,0,0-1.156-1.22,3.326,3.326,0,0,0-3.339,0,3.509,3.509,0,0,0-1.156,1.22,7.005,7.005,0,0,0-.706,1.734,9.8,9.8,0,0,0-.193,1.927,6.776,6.776,0,0,0,.257,1.991,4.379,4.379,0,0,0,.706,1.67,3.011,3.011,0,0,0,1.22,1.156,2.83,2.83,0,0,0,1.67.45,2.581,2.581,0,0,0,1.67-.514,4.212,4.212,0,0,0,1.156-1.22,5.191,5.191,0,0,0,.706-1.734,9.915,9.915,0,0,0,.257-1.927c-.193-.642-.257-1.22-.385-1.862m1.606,4.046a5.93,5.93,0,0,1-1.22,1.8,4.816,4.816,0,0,1-1.8,1.156,6.379,6.379,0,0,1-4.367,0,4.816,4.816,0,0,1-1.8-1.156,6.517,6.517,0,0,1-1.22-1.734,5.212,5.212,0,0,1-.45-2.248,5.311,5.311,0,0,1,.45-2.312,4.385,4.385,0,0,1,1.284-1.734,5.939,5.939,0,0,1,1.862-1.092,6.615,6.615,0,0,1,2.248-.385,5.5,5.5,0,0,1,2.312.45,4.958,4.958,0,0,1,1.734,1.22,6.089,6.089,0,0,1,1.092,1.734,5.563,5.563,0,0,1,.385,2.055,6.084,6.084,0,0,1-.514,2.248M84.2,62.87a3.2,3.2,0,0,0-1.092-.963,3.621,3.621,0,0,0-.771-.257,3.662,3.662,0,0,0-.835-.064h-.835v5.33a6.98,6.98,0,0,0,1.156-.064c.385-.064.706-.128,1.028-.193.321-.128.578-.257.835-.385a2.453,2.453,0,0,0,.578-.578,2.374,2.374,0,0,0,.321-.706,3.224,3.224,0,0,0,.128-.771A4.213,4.213,0,0,0,84.2,62.87m1.477,9.376-.193-.193c-.064-.064-.064-.128-.128-.128a.886.886,0,0,1-.193-.257,2.105,2.105,0,0,0-.385-.514,5.359,5.359,0,0,1-.514-.771,5.554,5.554,0,0,0-.45-.642A4.5,4.5,0,0,0,83.3,69.1c-.193-.257-.385-.45-.642-.771a6.055,6.055,0,0,0-.642-.642,2.171,2.171,0,0,0-.771-.385,1.254,1.254,0,0,0-.45-.064h-.321v3.789a.785.785,0,0,0,.193.578,1.393,1.393,0,0,0,.45.385,3.478,3.478,0,0,0,.963.257v.128H77.267v-.128c.257-.064.514-.128.706-.193a.8.8,0,0,0,.514-.385c.064-.064.064-.128.128-.257,0-.128.064-.257.064-.385a1.6,1.6,0,0,1,.064-.514V62.806c0-.193-.064-.321-.064-.45-.064-.128-.064-.257-.128-.321a.474.474,0,0,0-.385-.321,1.982,1.982,0,0,0-.706-.128v-.128h4.11a15.105,15.105,0,0,1,1.8.064,4.553,4.553,0,0,1,1.413.385,3.932,3.932,0,0,1,1.092.963,2.945,2.945,0,0,1,.193,2.5,2.309,2.309,0,0,1-.514.771,3.815,3.815,0,0,1-1.734.963v.064a1.347,1.347,0,0,1,.514.385c.128.193.321.385.45.578.257.385.514.771.835,1.22s.578.835.835,1.156a4.774,4.774,0,0,0,1.092,1.156,2.543,2.543,0,0,0,1.22.45v.128ZM72.836,62.934a3.519,3.519,0,0,0-1.156-1.028,3.621,3.621,0,0,0-.771-.257,3.662,3.662,0,0,0-.835-.064h-.514c-.128,0-.193,0-.257.064,0,.064,0,.128-.064.128a.236.236,0,0,1-.064.193v5.523a6.98,6.98,0,0,0,1.156-.064,2.662,2.662,0,0,0,1.028-.193,2.587,2.587,0,0,0,1.477-1.092,3.23,3.23,0,0,0,.514-1.734,3.14,3.14,0,0,0-.514-1.477m1.927,2.633a2.22,2.22,0,0,1-.45.771,2.007,2.007,0,0,1-.706.578,2.17,2.17,0,0,1-.771.385,3.682,3.682,0,0,1-.9.257c-.321.064-.642.064-.963.128-.321,0-.642.064-.963.064h-.835V70.9a.785.785,0,0,0,.193.578,1.393,1.393,0,0,0,.45.385,3.477,3.477,0,0,0,.963.257v.128H65.964v-.128c.257-.064.514-.128.706-.193a.8.8,0,0,0,.514-.385c.064-.064.064-.128.128-.257,0-.128.064-.257.064-.385a1.6,1.6,0,0,1,.064-.514V62.677c0-.193-.064-.321-.064-.45-.064-.128-.064-.257-.128-.321a.865.865,0,0,0-.578-.321,3.223,3.223,0,0,0-.771-.128v-.128h4.3a14.773,14.773,0,0,1,1.8.128,5.639,5.639,0,0,1,1.477.45,2.8,2.8,0,0,1,1.092,1.028,2.56,2.56,0,0,1,.45,1.541,4.553,4.553,0,0,1-.257,1.092" transform="translate(417.422 73.029)"/><path class="b" d="M31.083,43.618c0-.257.064-.578.064-.9V36.3h0c-3.211-.642-5.973-.963-6.486-1.028h0a89.352,89.352,0,0,0-18.174,0V27.241a38.307,38.307,0,0,1,8.092-.9h1.028a36.991,36.991,0,0,1,9.055.9v5.2c.642.064,3.4.385,6.486.963V20.177S25.624,18.7,15.606,18.7h-1.67A61.751,61.751,0,0,0,0,20.177V42.719a4.24,4.24,0,0,0,.064.9C.835,54.856,15.606,60.765,15.606,60.765h0s11.945-4.817,14.9-13.936a59.753,59.753,0,0,0-6.551-1.477c-2.119,4.752-8.349,7.257-8.349,7.257s-8.927-3.6-9.055-10.34a68.619,68.619,0,0,1,9.119-.578,61.154,61.154,0,0,1,11.5.963h.128a.236.236,0,0,1,.193.064c.128,0,.257.064.385.064h0l.771.193h.064C29.477,43.168,30.312,43.361,31.083,43.618Z" transform="translate(441 88.235)"/><path class="b" d="M25.445,3.911,28.078.443A67.851,67.851,0,0,0,13.5.314V8.021a69.608,69.608,0,0,1,14.514.064Z" transform="translate(436.17 94.933)"/></g></svg>