<svg xmlns="http://www.w3.org/2000/svg" viewBox="2457 57.39 128.17 102.98">
  <defs>
    <style>
      .cls-1 {
        fill: #ed1c24;
      }

      .cls-2 {
        fill: #34434a;
      }
    </style>
  </defs>
  <g id="Engima_Logo_Portrait" data-name="Engima Logo Portrait" transform="translate(2456.43 57.39)">
    <path id="Path_18" data-name="Path 18" class="cls-1" d="M155.439,4.246,158.306.464A69.684,69.684,0,0,0,142.5.384V8.745a72.985,72.985,0,0,1,15.766.119Z" transform="translate(-85.465 0.024)"/>
    <g id="Engima_Logo_Portrait-2" data-name="Engima Logo Portrait" transform="translate(0.57 13.217)">
      <path id="Path_8769" data-name="Path 8769" class="cls-1" d="M152.536,59.765c.02-.314.04-.628.04-.946V51.846h0c-3.453-.7-6.489-1.029-7.037-1.085h0a92.448,92.448,0,0,0-19.692,0V42.02a39.908,39.908,0,0,1,8.789-.942h1.073a41.306,41.306,0,0,1,9.834.954v5.662c.679.068,3.667.4,7.037,1.041V34.363s-6.012-1.621-16.863-1.633h-1.836c-9.715.175-15.071,1.617-15.071,1.617V58.819a7.437,7.437,0,0,0,.04.946c.795,12.159,16.847,18.607,16.847,18.607s12.965-5.217,16.164-15.1a56.076,56.076,0,0,0-7.1-1.589c-2.32,5.165-9.067,7.875-9.067,7.875s-9.687-3.894-9.838-11.233a74.868,74.868,0,0,1,9.862-.62A70.233,70.233,0,0,1,148.2,58.736l.167.032.242.048.445.087h0l.842.179h.048c.862.191,1.756.421,2.587.683Z" transform="translate(-71.602 -32.73)"/>
      <path id="Path_8771" data-name="Path 8771" class="cls-2" d="M117.9,177.582q.346.886.771,1.951t.874,2.221q.449,1.156.886,2.309h-6.4l1.14-2.809q.524-1.3.962-2.32t.731-1.744q.294-.719.449-1.053.23.564.576,1.45m10.275,14.1v-.306a2.65,2.65,0,0,1-1.025-.23,2.908,2.908,0,0,1-.731-.477,3.214,3.214,0,0,1-.473-.524,3.357,3.357,0,0,1-.23-.358l-.552-1.192q-.242-.524-.524-1.323-.616-1.617-1.232-3.27t-1.271-3.425q-.656-1.772-1.371-3.683t-1.514-4.041h-.207q-.1.179-.294.461a5.263,5.263,0,0,1-.477.592,4.917,4.917,0,0,1-.656.592,4.179,4.179,0,0,1-.834.489l.258.564q-.616,1.438-1.307,3.091t-1.4,3.282L112.96,185.1l-1.192,2.746a18.6,18.6,0,0,1-1,1.987,5.564,5.564,0,0,1-.592.846,2.524,2.524,0,0,1-.552.4,2.845,2.845,0,0,1-1.14.358v.282h5.463v-.258l-.707-.115a2.942,2.942,0,0,1-.691-.207,1.589,1.589,0,0,1-.524-.358.771.771,0,0,1-.207-.552,6.485,6.485,0,0,1,.54-1.951q.358-.9.719-1.784t.743-1.86h6.826q.4,1,.719,1.923t.588,1.681q.254.759.4,1.283a3.387,3.387,0,0,1,.143.755.8.8,0,0,1-.242.592,1.764,1.764,0,0,1-.564.358,3.076,3.076,0,0,1-.616.179,2.98,2.98,0,0,1-.373.052v.258Zm-31.068,0V191.4a4.192,4.192,0,0,0,1.848-.461,2.253,2.253,0,0,0,1-.95,3.148,3.148,0,0,0,.23-.834,9.932,9.932,0,0,0,.1-1.013q.052-1.693.052-3.234V174.467l-1.554,3.489q-.707,1.589-1.4,3.1t-1.4,3.091l-1.546,3.461q-.127.258-.358.795t-.461,1.128q-.23.576-.437,1.053t-.258.628h-.155l-1.629-3.771q-.795-1.871-1.589-3.6t-1.438-3.246q-.668-1.514-1.192-2.694t-.886-1.987q-.346-.795-.477-1.077v2.988q0,1.3-.024,2.567v5.964q0,1.192.075,2.09a4.033,4.033,0,0,0,.4,1.486,2.225,2.225,0,0,0,.938.95,5.1,5.1,0,0,0,1.732.5v.258H81.943v-.258a4.471,4.471,0,0,0,1.462-.524,2.5,2.5,0,0,0,.9-.962,4.931,4.931,0,0,0,.489-1.49,15.412,15.412,0,0,0,.179-2.221q.052-1.1.075-2.6t.024-3.218v-3.234q0-.513-.024-1.256a2.332,2.332,0,0,0-.31-1.168,2.309,2.309,0,0,0-.668-.707,2.753,2.753,0,0,0-.822-.373q-.437-.115-.743-.167V173.2h5.463L94.1,187.162q1.128-2.436,2.205-4.848t1.939-4.371q.858-1.951,1.411-3.246t.628-1.5h5.463v.254a2.781,2.781,0,0,0-1.589.437,2.11,2.11,0,0,0-.759.973,5.28,5.28,0,0,0-.207,1.359q-.052.922-.076,1.82-.024,1.232-.028,2.384v5.106q0,1.359.028,2.873a7.736,7.736,0,0,0,.064.989,2.261,2.261,0,0,0,.219.8,1.8,1.8,0,0,0,.191.242,2.667,2.667,0,0,0,.477.4,3.2,3.2,0,0,0,.771.4,3.576,3.576,0,0,0,1.077.191v.258Zm-20.193-8.344a1.331,1.331,0,0,0-.743.525,1.808,1.808,0,0,0-.207.874q-.024.592-.024,1.192v3.747a5.639,5.639,0,0,1-.886.513,16.271,16.271,0,0,1-3.973,1.359,12.062,12.062,0,0,1-2.464.258,14.011,14.011,0,0,1-4.371-.628A8.686,8.686,0,0,1,61,189.331a8.078,8.078,0,0,1-2.026-2.976,10.486,10.486,0,0,1-.707-3.938,9.8,9.8,0,0,1,.127-1.474,9.981,9.981,0,0,1,.449-1.756,9.775,9.775,0,0,1,.9-1.871,9.091,9.091,0,0,1,1.45-1.8,9.25,9.25,0,0,1,3.028-1.935,11.571,11.571,0,0,1,4.371-.731,12.294,12.294,0,0,1,2.718.27,13.805,13.805,0,0,1,1.987.588,8.3,8.3,0,0,1,1.244.592,2.559,2.559,0,0,0,.489.27q.052,0,.282-.306l.564-.743h.23v5.583h-.31a8.9,8.9,0,0,0-.846-2.181,7.993,7.993,0,0,0-1.192-1.693,6.067,6.067,0,0,0-2.1-1.411,7.354,7.354,0,0,0-2.873-.54,6.175,6.175,0,0,0-3.052.755,7.271,7.271,0,0,0-2.309,2.026,9.575,9.575,0,0,0-1.462,2.924,11.67,11.67,0,0,0-.513,3.477,12.894,12.894,0,0,0,.489,3.656,8.388,8.388,0,0,0,1.411,2.833A6.421,6.421,0,0,0,65.6,190.79a6.846,6.846,0,0,0,3.052.656,6.155,6.155,0,0,0,2.3-.425,3.489,3.489,0,0,0,1.681-1.371,3.179,3.179,0,0,0,.31-1.192,14.515,14.515,0,0,0,.1-1.744,13.113,13.113,0,0,0-.091-1.617,2.038,2.038,0,0,0-.524-1.192,3.048,3.048,0,0,0-2.078-.795v-.254h7.53v.254a5.022,5.022,0,0,0-.95.219m-30.965,8.344v-.258a5.2,5.2,0,0,0,1.192-.334,2.539,2.539,0,0,0,.938-.668,1.033,1.033,0,0,0,.191-.437,5.539,5.539,0,0,0,.1-.668c.028-.258.044-.525.052-.795s0-.56,0-.834V186.7c0-.409,0-.858.028-1.347s0-.989,0-1.5v-7.414q0-.461-.04-.858a5.24,5.24,0,0,0-.115-.719,1.192,1.192,0,0,0-.23-.5,2.038,2.038,0,0,0-.886-.628,5.253,5.253,0,0,0-1.192-.27v-.254h7.673v.254a6.69,6.69,0,0,0-1.156.282,1.653,1.653,0,0,0-.95.822,2.448,2.448,0,0,0-.242,1.1q0,.668-.04,1.256a10.166,10.166,0,0,0,0,1.271v9.866q0,.743.028,1.438a1.832,1.832,0,0,0,.23.973,1.907,1.907,0,0,0,.973.668,5.245,5.245,0,0,0,1.192.282v.258Zm-6.032-17.717a2.277,2.277,0,0,0-.886,1.1,4.319,4.319,0,0,0-.23,1.422q-.052,1.041-.1,2.221-.052,1.1-.091,2.6t-.04,3.218v7.005a.227.227,0,0,1-.064.167.262.262,0,0,1-.191.064.707.707,0,0,1-.461-.258q-2.181-2.515-3.973-4.617l-3.425-4.017-3.179-3.731q-1.55-1.82-3.31-3.771v10.828q0,1.307.064,2.36a4.236,4.236,0,0,0,.322,1.566,1.852,1.852,0,0,0,.886.886,5.3,5.3,0,0,0,1.657.425v.258H20.6v-.258a5.015,5.015,0,0,0,1.232-.322,1.987,1.987,0,0,0,.973-.795,3.52,3.52,0,0,0,.461-1.589q.1-1.053.155-2.515.052-1.1.075-2.6t.028-3.218v-3.131q0-.513-.028-1.256a2.976,2.976,0,0,0-.358-1.22,2.384,2.384,0,0,0-.668-.743,2.555,2.555,0,0,0-.834-.4,6.953,6.953,0,0,0-.858-.167v-.254H25.99l12.155,14.2v-8.741q0-1.025-.024-1.963a4.633,4.633,0,0,0-.23-1.474,2.352,2.352,0,0,0-.906-1.14,4.514,4.514,0,0,0-1.883-.628v-.254h6.357v.254a3.874,3.874,0,0,0-1.526.489M15.695,191.691H0v-.258a5.2,5.2,0,0,0,1.192-.334,2.443,2.443,0,0,0,.91-.64,1.164,1.164,0,0,0,.207-.465q.075-.294.143-.679a7.946,7.946,0,0,0,.091-.795q.024-.425.024-.834v-.973q0-.616.024-1.347t0-1.5v-7.45a7.8,7.8,0,0,0-.052-.922,4.868,4.868,0,0,0-.127-.795,1.093,1.093,0,0,0-.242-.5,1.756,1.756,0,0,0-.822-.524,10.843,10.843,0,0,0-1.128-.219V173.2H14.392l1.744,4.232-.258.127a12.481,12.481,0,0,0-3.9-3.489,6.21,6.21,0,0,0-1.617-.358,22.713,22.713,0,0,0-2.873-.155q-.54,0-1.117.04a7.153,7.153,0,0,0-.834.091q-.052.4-.091,1.693t-.04,2.976v3.691H5.96q.4,0,.886-.028t1-.064a5.791,5.791,0,0,0,.834-.115,4.446,4.446,0,0,0,1.283-.489,2.817,2.817,0,0,0,.834-.743,3.644,3.644,0,0,0,.513-1.013,12.142,12.142,0,0,0,.346-1.3h.31v8.082h-.31a8.79,8.79,0,0,0-.628-1.693,4.51,4.51,0,0,0-.886-1.307,3.413,3.413,0,0,0-1.005-.6,4.427,4.427,0,0,0-1.347-.282l-.64-.052h-1.7A7.947,7.947,0,0,0,5.4,183.5V188q.024.822.091,1.554a2.452,2.452,0,0,0,.294,1.093,1.624,1.624,0,0,0,1.1.513,10.952,10.952,0,0,0,1.9.155q.437,0,1.117-.024a13.873,13.873,0,0,0,1.422-.127,5.59,5.59,0,0,0,1.514-.4,5.3,5.3,0,0,0,1.335-.834,8.463,8.463,0,0,0,1.244-1.323,17.56,17.56,0,0,0,1.271-1.9l.282.075Z" transform="translate(0 -117.174)"/>
      <path id="Path_8772" data-name="Path 8772" class="cls-2" d="M137.913,233.711a2.126,2.126,0,0,0-.5.354,3.422,3.422,0,0,0-.445.517q-.211.3-.457.683-.163.258-.457.7t-.6.922l-.592.914-.449.683v2.742q0,.4.02.771a1.025,1.025,0,0,0,.131.524.954.954,0,0,0,.532.4,6.172,6.172,0,0,0,.628.151v.135h-4.192v-.123a3.08,3.08,0,0,0,.62-.131,1.4,1.4,0,0,0,.564-.429.461.461,0,0,0,.1-.23,3.538,3.538,0,0,0,.056-.37c0-.135.024-.282.028-.437s0-.306,0-.449q0-.4.02-.906t0-1.275l-.163-.258-.334-.54-.437-.715-.457-.787-.437-.7q-.2-.33-.342-.532l-.469-.723a3.975,3.975,0,0,0-.429-.56,2.385,2.385,0,0,0-.429-.37.966.966,0,0,0-.485-.151v-.135h4.136v.135a3.127,3.127,0,0,0-.4.04,1.959,1.959,0,0,0-.4.087.8.8,0,0,0-.286.163.366.366,0,0,0-.111.282,1.308,1.308,0,0,0,.2.54q.2.362.4.731l.354.592q.2.35.449.735l.5.795q.254.4.469.795.179-.258.437-.664l.525-.819.5-.795q.238-.4.362-.6.068-.107.151-.254c.056-.1.107-.195.159-.3a2.818,2.818,0,0,0,.131-.322.965.965,0,0,0,.056-.3.5.5,0,0,0-.111-.342.731.731,0,0,0-.278-.191,1.82,1.82,0,0,0-.377-.1l-.4-.06v-.135h3.151v.135a2.146,2.146,0,0,0-.656.191m-9.949,2.217q-.111-.246-.258-.513t-.306-.5q-.155-.23-.306-.429a2.059,2.059,0,0,0-.258-.294,1.431,1.431,0,0,0-.62-.362,3.8,3.8,0,0,0-.854-.1H123.6v7.49q0,.4.02.759a1,1,0,0,0,.131.513,1.021,1.021,0,0,0,.58.4,6.751,6.751,0,0,0,.675.163v.135h-4.426v-.107a4.1,4.1,0,0,0,.683-.135,1.415,1.415,0,0,0,.64-.449.457.457,0,0,0,.1-.226,3.251,3.251,0,0,0,.056-.354q.02-.2.028-.429t0-.449v-7.3h-1.732a3.062,3.062,0,0,0-.854.123,1.641,1.641,0,0,0-.62.4,1.914,1.914,0,0,0-.25.286q-.143.191-.3.4a5.563,5.563,0,0,0-.3.485,3.078,3.078,0,0,0-.226.5l-.123-.04.4-2.595q.314.068.58.107a6.588,6.588,0,0,0,.771.056l.93.02h5.908a4.369,4.369,0,0,0,.743-.076q.294-.06.608-.155l.437,2.662Zm-15.135-1.244a2.357,2.357,0,0,0-1-.846,2.985,2.985,0,0,0-.687-.219,4.1,4.1,0,0,0-.759-.068h-.465l-.274.028a.238.238,0,0,1-.028.143,1.077,1.077,0,0,0-.02.155v.266q0,.171-.02.485,0,.477-.02,1.077t0,1.16v1.5q.56,0,1.045-.048a4.239,4.239,0,0,0,.934-.2,2.5,2.5,0,0,0,.751-.37,2.15,2.15,0,0,0,.513-.525,2.181,2.181,0,0,0,.294-.636,2.637,2.637,0,0,0,.1-.711,2.205,2.205,0,0,0-.342-1.216m1.351,8.5-.179-.183-.123-.143a2.709,2.709,0,0,1-.171-.238q-.1-.155-.322-.469-.258-.4-.457-.691t-.4-.608q-.2-.3-.445-.608t-.568-.687a5.563,5.563,0,0,0-.592-.588,1.47,1.47,0,0,0-.675-.342,2.108,2.108,0,0,0-.4-.056h-.314V241.2q0,.449.028.751a.989.989,0,0,0,.151.517,1.192,1.192,0,0,0,.421.362,1.927,1.927,0,0,0,.874.211v.135H106.65v-.1a3.821,3.821,0,0,0,.656-.163,1.065,1.065,0,0,0,.493-.326.62.62,0,0,0,.111-.246,2.55,2.55,0,0,0,.06-.37c0-.135.024-.282.036-.437s0-.306,0-.449v-5.976a2.632,2.632,0,0,0-.028-.477,2.546,2.546,0,0,0-.068-.4.58.58,0,0,0-.131-.266,1.025,1.025,0,0,0-.457-.294,4.663,4.663,0,0,0-.62-.131v-.135h3.767q.914,0,1.625.056a3.247,3.247,0,0,1,1.3.37,2.631,2.631,0,0,1,.97.854,2.356,2.356,0,0,1,.37,1.359,2.157,2.157,0,0,1-.183.906,2.424,2.424,0,0,1-.493.711,2.992,2.992,0,0,1-.715.524,5.5,5.5,0,0,1-.858.37v.04a1.753,1.753,0,0,1,.449.354,5,5,0,0,1,.425.521l.771,1.12.743,1.065a4.184,4.184,0,0,0,.981,1.037,2.635,2.635,0,0,0,1.12.425v.135Zm-10.224,0H95.62v-.087a2.782,2.782,0,0,0,.636-.179,1.3,1.3,0,0,0,.485-.342.612.612,0,0,0,.107-.238c.028-.1.052-.226.076-.362a4.182,4.182,0,0,0,.048-.429v-6.429a2.836,2.836,0,0,0-.028-.493,2.559,2.559,0,0,0-.068-.4.584.584,0,0,0-.131-.266.93.93,0,0,0-.437-.278,5.74,5.74,0,0,0-.6-.115v-.135h7.549l.93,2.253-.135.068a6.651,6.651,0,0,0-2.074-1.856,3.325,3.325,0,0,0-.858-.191,12.1,12.1,0,0,0-1.53-.083q-.286,0-.592.02a3.8,3.8,0,0,0-.445.048q-.028.219-.048.9t-.02,1.589v1.955h.747l.532-.036a3.031,3.031,0,0,0,.445-.06,2.384,2.384,0,0,0,.683-.258,1.5,1.5,0,0,0,.445-.4,1.947,1.947,0,0,0,.274-.54,6.463,6.463,0,0,0,.183-.691h.163v4.3h-.163a4.681,4.681,0,0,0-.334-.9,2.384,2.384,0,0,0-.473-.7,1.824,1.824,0,0,0-.524-.314,2.356,2.356,0,0,0-.723-.215l-.342-.02h-.9a4.26,4.26,0,0,0-.028.56v2.368a6.807,6.807,0,0,0,.048.826,1.307,1.307,0,0,0,.155.58.862.862,0,0,0,.588.274,5.837,5.837,0,0,0,1.009.083h.592a4.532,4.532,0,0,0,.759-.068,2.973,2.973,0,0,0,.795-.211,2.829,2.829,0,0,0,.711-.445,4.494,4.494,0,0,0,.664-.7,9.382,9.382,0,0,0,.664-1l.151.04ZM91.547,234.74a2.483,2.483,0,0,0-1.752-1.132,5.243,5.243,0,0,0-.783-.06,3.576,3.576,0,0,0-.445.02l-.254.036a.92.92,0,0,1-.036.143.937.937,0,0,0-.036.155,1.772,1.772,0,0,1-.028.266,3.211,3.211,0,0,0-.028.485q0,.477-.02,1.16t0,1.339V238.9q.56,0,1.049-.036a3.429,3.429,0,0,0,.914-.183,2.555,2.555,0,0,0,1.339-.989,2.71,2.71,0,0,0,.465-1.55,2.507,2.507,0,0,0-.4-1.407m1.713,2.384a2.615,2.615,0,0,1-.429.723,2.71,2.71,0,0,1-.62.54,3.833,3.833,0,0,1-.723.362,4.473,4.473,0,0,1-.819.207q-.437.068-.878.1t-.866.036h-.735v2.142q0,.437.028.751a1,1,0,0,0,.151.521,1.148,1.148,0,0,0,.425.354,1.987,1.987,0,0,0,.874.207v.135H85.285v-.115a3.827,3.827,0,0,0,.656-.163,1.065,1.065,0,0,0,.493-.326.624.624,0,0,0,.107-.246,2.608,2.608,0,0,0,.06-.37q.02-.2.036-.437a3.173,3.173,0,0,0,0-.449v-5.976a2.632,2.632,0,0,0-.028-.477,2.543,2.543,0,0,0-.068-.4.576.576,0,0,0-.131-.266,1.021,1.021,0,0,0-.524-.294q-.322-.076-.687-.131v-.135H89.06a12.753,12.753,0,0,1,1.589.087,3.615,3.615,0,0,1,1.311.429,2.781,2.781,0,0,1,1,.93,2.519,2.519,0,0,1,.4,1.419,2.439,2.439,0,0,1-.163.914m-12.167-.572a5.32,5.32,0,0,0-.64-1.534,3.652,3.652,0,0,0-1.073-1.121,2.658,2.658,0,0,0-1.514-.429,2.714,2.714,0,0,0-1.534.429,3.509,3.509,0,0,0-1.065,1.113,5.166,5.166,0,0,0-.612,1.55,7.836,7.836,0,0,0-.2,1.756,7.247,7.247,0,0,0,.219,1.788,4.97,4.97,0,0,0,.648,1.514,3.393,3.393,0,0,0,1.077,1.053,2.837,2.837,0,0,0,1.506.4,2.571,2.571,0,0,0,1.494-.437,3.691,3.691,0,0,0,1.057-1.124,5.416,5.416,0,0,0,.636-1.55,7.176,7.176,0,0,0,.211-1.72,6.9,6.9,0,0,0-.211-1.681m1.494,3.683a5.07,5.07,0,0,1-1.113,1.609,4.916,4.916,0,0,1-1.637,1.053,5.531,5.531,0,0,1-3.954,0,4.923,4.923,0,0,1-1.625-1.025,4.824,4.824,0,0,1-1.1-1.589,5.388,5.388,0,0,1,.02-4.136,4.741,4.741,0,0,1,1.14-1.589,5.019,5.019,0,0,1,1.677-1,5.912,5.912,0,0,1,2.026-.35,5.074,5.074,0,0,1,2.082.4,4.729,4.729,0,0,1,1.562,1.1,4.808,4.808,0,0,1,.981,1.589,5.277,5.277,0,0,1,.342,1.883,4.947,4.947,0,0,1-.4,2.018M67.341,234.7a2.352,2.352,0,0,0-.977-.842,2.984,2.984,0,0,0-.687-.219,4.1,4.1,0,0,0-.759-.068h-.465l-.274.028a.238.238,0,0,1-.028.143,1.14,1.14,0,0,0-.02.155v.266q0,.171-.02.485,0,.477-.02,1.077t0,1.16v1.5q.56,0,1.045-.048a4.253,4.253,0,0,0,.934-.2,2.5,2.5,0,0,0,.751-.37,2.149,2.149,0,0,0,.513-.524,2.182,2.182,0,0,0,.294-.636,2.622,2.622,0,0,0,.1-.711,2.205,2.205,0,0,0-.342-1.216m1.351,8.5-.179-.183-.123-.143a2.7,2.7,0,0,1-.171-.238q-.1-.155-.322-.469-.258-.4-.457-.691t-.4-.608q-.207-.3-.445-.608t-.564-.687a5.6,5.6,0,0,0-.592-.588,1.47,1.47,0,0,0-.675-.342,2.109,2.109,0,0,0-.4-.056h-.314v2.646q0,.449.028.751a.989.989,0,0,0,.151.517,1.192,1.192,0,0,0,.425.362,1.923,1.923,0,0,0,.874.211v.135H61.2v-.115a3.821,3.821,0,0,0,.656-.163,1.065,1.065,0,0,0,.493-.326.62.62,0,0,0,.107-.246,2.6,2.6,0,0,0,.064-.37q.02-.2.036-.437a3.173,3.173,0,0,0,0-.449v-5.976a3.913,3.913,0,0,0-.028-.477,2.591,2.591,0,0,0-.068-.4.58.58,0,0,0-.131-.266,1.025,1.025,0,0,0-.457-.294,4.663,4.663,0,0,0-.62-.131v-.135h3.755q.914,0,1.625.056a3.247,3.247,0,0,1,1.3.37,2.627,2.627,0,0,1,.97.854,2.356,2.356,0,0,1,.37,1.359,2.158,2.158,0,0,1-.183.906,2.416,2.416,0,0,1-.493.711,2.992,2.992,0,0,1-.715.524,5.516,5.516,0,0,1-.858.37v.04a1.752,1.752,0,0,1,.449.354,5,5,0,0,1,.425.521l.771,1.12.743,1.065a4.184,4.184,0,0,0,.981,1.037,2.639,2.639,0,0,0,1.12.425v.135ZM57.114,234.74a2.483,2.483,0,0,0-1.752-1.132,5.244,5.244,0,0,0-.763-.056,3.571,3.571,0,0,0-.445.02l-.254.036a.922.922,0,0,1-.036.143.938.938,0,0,0-.036.155,1.772,1.772,0,0,1-.028.266,3.213,3.213,0,0,0-.028.485q0,.477-.02,1.16t0,1.339V238.9q.56,0,1.053-.036a3.429,3.429,0,0,0,.914-.183,2.555,2.555,0,0,0,1.339-.989,2.71,2.71,0,0,0,.465-1.55,2.507,2.507,0,0,0-.4-1.407m1.689,2.384a2.607,2.607,0,0,1-.4.735,2.714,2.714,0,0,1-.62.54,3.835,3.835,0,0,1-.723.362,4.474,4.474,0,0,1-.819.207q-.437.068-.878.1t-.866.036h-.763v2.142q0,.437.028.751a1,1,0,0,0,.151.521,1.148,1.148,0,0,0,.425.354,1.986,1.986,0,0,0,.886.211v.135H50.867v-.135a3.827,3.827,0,0,0,.656-.163,1.065,1.065,0,0,0,.493-.326.624.624,0,0,0,.107-.246,2.61,2.61,0,0,0,.06-.37c0-.135.024-.282.036-.437s0-.306,0-.449v-5.976a2.633,2.633,0,0,0-.028-.477,2.548,2.548,0,0,0-.068-.4.576.576,0,0,0-.131-.266,1.021,1.021,0,0,0-.524-.294q-.322-.076-.687-.131v-.135h3.862a12.752,12.752,0,0,1,1.589.087,3.616,3.616,0,0,1,1.311.429,2.781,2.781,0,0,1,1,.93,2.519,2.519,0,0,1,.4,1.419,2.44,2.44,0,0,1-.123.842" transform="translate(-30.603 -153.575)"/>
    </g>
  </g>
</svg>
