<svg xmlns="http://www.w3.org/2000/svg" viewBox="7469.029 2256.498 25.943 24.001"><defs><style>.a{fill:#34434a;}</style></defs><g transform="translate(6741.682 3279.334) rotate(-56)"><path class="a" d="M-6161.467-17114.2h-3v-7.346a7.211,7.211,0,0,1-5.754-7.049,7.2,7.2,0,0,1,7.195-7.193,7.2,7.2,0,0,1,7.195,7.193,7.233,7.233,0,0,1-5.634,7.025v7.369Zm-1.56-18.586a4.2,4.2,0,0,0-4.2,4.191,4.2,4.2,0,0,0,4.2,4.2,4.2,4.2,0,0,0,4.193-4.2A4.2,4.2,0,0,0-6163.027-17132.789Z" transform="translate(7415.029 17173.498)"/></g></svg>