<?xml version="1.0" encoding="utf-8"?>
<!-- Generator: Adobe Illustrator 21.1.0, SVG Export Plug-In . SVG Version: 6.00 Build 0)  -->
<svg version="1.1" id="Layer_1" xmlns="http://www.w3.org/2000/svg" xmlns:xlink="http://www.w3.org/1999/xlink" x="0px" y="0px"
	 viewBox="0 0 165.3 165.3" style="enable-background:new 0 0 165.3 165.3;" xml:space="preserve">
<style type="text/css">
	.st0{fill:#FFFFFF;}
</style>
<title>SearchIconsvg</title>
<path class="st0" d="M97.9,91.7l23.6,23.6l-6,6L92,97.8c-14.4,11.1-33.7,6.3-42.7-6.3c-8.7-12.2-7.1-29.3,3.9-39.4
	c12-11.4,31-10.8,42.3,1.2C105.5,63.9,106.5,80,97.9,91.7L97.9,91.7z M73.7,95.5c11.8,0,21.4-9.6,21.4-21.4
	c0-11.8-9.6-21.4-21.4-21.4c-11.8,0-21.3,9.5-21.4,21.3C52.3,85.9,61.8,95.4,73.7,95.5C73.6,95.5,73.7,95.5,73.7,95.5z"/>
<path class="st0" d="M82.6,162.8c-44.3,0-80.2-35.9-80.2-80.2c0-44.3,35.9-80.2,80.2-80.2c44.3,0,80.2,35.9,80.2,80.2
	C162.8,126.9,126.9,162.8,82.6,162.8z M82.6,6.3C40.5,6.3,6.3,40.5,6.3,82.6s34.2,76.3,76.3,76.3s76.3-34.2,76.3-76.3
	C158.9,40.5,124.7,6.4,82.6,6.3L82.6,6.3z"/>
</svg>
