<svg xmlns="http://www.w3.org/2000/svg" viewBox="7465 2250.5 32 29.999"><defs><style>.a{fill:none;stroke:#ed1c24;stroke-width:3px;}.b{fill:#34434a;}</style></defs><g transform="translate(6017 2251)"><g transform="translate(783 -114)"><line class="a" x2="32" transform="translate(665 115)"/></g><g transform="translate(724.682 1028.334) rotate(-56)"><path class="b" d="M-6161.467-17114.2h-3v-7.346a7.211,7.211,0,0,1-5.754-7.049,7.2,7.2,0,0,1,7.195-7.193,7.2,7.2,0,0,1,7.195,7.193,7.233,7.233,0,0,1-5.634,7.025v7.369Zm-1.56-18.586a4.2,4.2,0,0,0-4.2,4.191,4.2,4.2,0,0,0,4.2,4.2,4.2,4.2,0,0,0,4.193-4.2A4.2,4.2,0,0,0-6163.027-17132.789Z" transform="translate(7415.029 17173.498)"/></g></g></svg>