<svg xmlns="http://www.w3.org/2000/svg" xmlns:xlink="http://www.w3.org/1999/xlink" viewBox="-12544.188 -13970.028 98.377 98.273">
  <defs>
    <style>
      .cls-1 {
        fill: #b3996b;
      }

      .cls-2 {
        clip-path: url(#clip-path);
      }

      .cls-3 {
        clip-path: url(#clip-path-2);
      }

      .cls-4, .cls-5 {
        fill: none;
      }

      .cls-5 {
        stroke: #b3996b;
        stroke-miterlimit: 10;
        stroke-width: 1.4px;
      }

      .cls-6 {
        fill: #fff;
      }
    </style>
    <clipPath id="clip-path">
      <path id="Path_1530" data-name="Path 1530" d="M2.023,2.023H97.976v95.7H2.023ZM1,98.829H99V1H1Z" transform="translate(-1 -1)"/>
    </clipPath>
    <clipPath id="clip-path-2">
      <rect id="Rectangle_2495" data-name="Rectangle 2495" width="99.703" height="99.533"/>
    </clipPath>
  </defs>
  <g id="Group_3885" data-name="Group 3885" transform="translate(-12544.999 -13971.028)">
    <path id="Path_1529" data-name="Path 1529" class="cls-1" d="M97.976,97.806H2.023V2.023H97.976V97.806ZM1,98.829H99V1H1Z"/>
    <g id="Group_3881" data-name="Group 3881" transform="translate(1 1)">
      <g id="Group_3880" data-name="Group 3880" class="cls-2">
        <g id="Group_3879" data-name="Group 3879" class="cls-3" transform="translate(-0.852 -0.852)">
          <rect id="Rectangle_2494" data-name="Rectangle 2494" class="cls-4" width="99.746" height="99.538"/>
        </g>
      </g>
    </g>
    <rect id="Rectangle_2496" data-name="Rectangle 2496" width="96.976" height="96.721" transform="translate(1.511 1.852)"/>
    <rect id="Rectangle_2497" data-name="Rectangle 2497" class="cls-5" width="96.976" height="96.721" transform="translate(1.511 1.852)"/>
    <path id="Path_1531" data-name="Path 1531" class="cls-6" d="M12.2,32.566H23.193V28.561H17.057V25.152h5.88v-4.09h-5.88V18.505h6.136V14.5H12.2Z" transform="translate(-1.656 -1.996)"/>
    <path id="Path_1532" data-name="Path 1532" class="cls-6" d="M27.8,18.505h3.835V32.566h4.857V18.505h3.835V14.5H27.8Z" transform="translate(-3.962 -1.996)"/>
    <path id="Path_1533" data-name="Path 1533" class="cls-6" d="M55.867,21.147h-5.71V14.5H45.3V32.566h4.857V24.982h5.71v7.584h4.857V14.5H55.867Z" transform="translate(-6.549 -1.996)"/>
    <g id="Group_3882" data-name="Group 3882" transform="translate(56.476 12.078)">
      <path id="Path_1534" data-name="Path 1534" class="cls-6" d="M97.536,20.9c-1.534-.6-2.471-.937-2.471-1.7s.937-1.363,1.7-1.363a2.866,2.866,0,0,1,2.386,1.193l.426.6,2.471-3.238-.341-.341A8.8,8.8,0,0,0,96.088,14a5.854,5.854,0,0,0-6.136,5.624c0,3.068,2.216,4.261,4.6,5.2l.341.085c1.534.511,2.642.937,2.642,2.13a1.835,1.835,0,0,1-1.875,1.875,3.248,3.248,0,0,1-2.9-2.13l-.256-.767L89.1,29l.256.426A7.46,7.46,0,0,0,95.662,33c4.09,0,6.817-2.556,6.817-6.391.17-3.75-2.812-4.857-4.943-5.71" transform="translate(-69.5 -14)"/>
      <path id="Path_1535" data-name="Path 1535" class="cls-6" d="M75.559,28.6a4.857,4.857,0,1,1,4.857-4.857A4.855,4.855,0,0,1,75.559,28.6m0-14.4a9.459,9.459,0,1,0,9.459,9.459A9.492,9.492,0,0,0,75.559,14.2" transform="translate(-66.1 -14.03)"/>
      <path id="Path_1536" data-name="Path 1536" class="cls-1" d="M76.86,23a1.96,1.96,0,0,0,0,3.92,1.96,1.96,0,1,0,0-3.92" transform="translate(-67.401 -15.331)"/>
    </g>
    <path id="Path_1537" data-name="Path 1537" class="cls-1" d="M17.369,49.176v-4.6h0l-1.534,4.6H14.812l-1.449-4.6h-.085l.085,4.6H12V42.7h2.045l1.278,4.176h.085L16.687,42.7h2.045v6.476Z" transform="translate(-1.626 -6.165)"/>
    <rect id="Rectangle_2498" data-name="Rectangle 2498" class="cls-1" width="1.449" height="6.476" transform="translate(23.582 36.535)"/>
    <g id="Group_3883" data-name="Group 3883" transform="translate(32.53 36.535)">
      <path id="Path_1538" data-name="Path 1538" class="cls-1" d="M41.92,45.938A3.063,3.063,0,0,0,41.75,45a1.528,1.528,0,0,0-.426-.6,1.373,1.373,0,0,0-.6-.341,1.876,1.876,0,0,0-.682-.085h-.682v3.835h.682a2.359,2.359,0,0,0,.767-.085,1.373,1.373,0,0,0,.6-.341,1.529,1.529,0,0,0,.426-.6,2.627,2.627,0,0,0,.085-.852m1.534,0a3.672,3.672,0,0,1-.256,1.449,2.326,2.326,0,0,1-.767,1.023,6.356,6.356,0,0,1-1.023.6,5.754,5.754,0,0,1-1.193.17H38V42.7h2.13a5.029,5.029,0,0,1,1.193.17,2.641,2.641,0,0,1,1.108.511A2.326,2.326,0,0,1,43.2,44.4a3.561,3.561,0,0,1,.256,1.534" transform="translate(-38 -42.7)"/>
    </g>
    <path id="Path_1539" data-name="Path 1539" class="cls-1" d="M17.369,61.076v-4.6h0l-1.534,4.6H14.812l-1.449-4.6h-.085l.085,4.6H12V54.6h2.045l1.278,4.176h.085L16.687,54.6h2.045v6.476Z" transform="translate(-1.626 -7.924)"/>
    <path id="Path_1540" data-name="Path 1540" class="cls-1" d="M28.053,56.3l-.767,2.216h1.449Zm1.534,4.772L29.161,59.8h-2.3l-.426,1.278H24.9L27.371,54.6h1.363l2.471,6.476Z" transform="translate(-3.533 -7.924)"/>
    <g id="Group_3884" data-name="Group 3884" transform="translate(33.041 46.676)">
      <path id="Path_1541" data-name="Path 1541" class="cls-1" d="M41.753,56.56c0-.17,0-.256-.085-.341l-.256-.256c-.085-.085-.17-.085-.341-.085H39.963v1.534h1.023c.085,0,.256-.085.341-.085l.256-.256a1.211,1.211,0,0,0,.17-.511m0,4.516L40.475,58.52h-.511v2.556H38.6V54.6h2.216a2.9,2.9,0,0,1,.852.085,1.713,1.713,0,0,1,.682.341,3.706,3.706,0,0,1,.511.6,3.064,3.064,0,0,1,.17.937,1.571,1.571,0,0,1-.341,1.108,2.164,2.164,0,0,1-.852.682l1.534,2.812H41.753Z" transform="translate(-38.6 -54.6)"/>
    </g>
    <path id="Path_1542" data-name="Path 1542" class="cls-1" d="M54.679,61.076l-2.216-2.983h0v2.983H51.1V54.6h1.363v2.642h0l2.13-2.642h1.79l-2.556,2.983,2.727,3.494Z" transform="translate(-7.407 -7.924)"/>
    <path id="Path_1543" data-name="Path 1543" class="cls-1" d="M63.4,61.076V54.6h3.92v1.363H64.763v1.193h2.471v1.278H64.763V59.8H67.49v1.278Z" transform="translate(-9.225 -7.924)"/>
    <path id="Path_1544" data-name="Path 1544" class="cls-1" d="M77.568,55.963v5.113H76.119V55.963H74.5V54.6h4.687v1.363Z" transform="translate(-10.866 -7.924)"/>
  </g>
</svg>
