<svg xmlns="http://www.w3.org/2000/svg" xmlns:xlink="http://www.w3.org/1999/xlink" viewBox="-15410.5 -22092 131 131.5">
  <defs>
    <style>
      .cls-1 {
        clip-path: url(#clip-path);
      }

      .cls-2 {
        clip-path: url(#clip-path-2);
      }

      .cls-3 {
        fill: none;
      }

      .cls-4 {
        stroke: #b3996b;
      }

      .cls-5 {
        fill: #fff;
      }

      .cls-6 {
        fill: #b3996b;
      }
    </style>
    <clipPath id="clip-path">
      <path id="Path_846" data-name="Path 846" d="M2.357,2.359H129.643V129.528H2.357ZM1,131H131V1H1Z" transform="translate(-1 -1)"/>
    </clipPath>
    <clipPath id="clip-path-2">
      <rect id="Rectangle_2241" data-name="Rectangle 2241" width="132.261" height="132.265"/>
    </clipPath>
  </defs>
  <g id="Group_3083" data-name="Group 3083" transform="translate(-15411 -22093)">
    <g id="Group_3082" data-name="Group 3082" transform="translate(1 1)">
      <g id="Group_3081" data-name="Group 3081" class="cls-1">
        <g id="Group_3080" data-name="Group 3080" class="cls-2" transform="translate(-1.13 -1.132)">
          <rect id="Rectangle_2240" data-name="Rectangle 2240" class="cls-3" width="132.318" height="132.271"/>
        </g>
      </g>
    </g>
    <rect id="Rectangle_2244" data-name="Rectangle 2244" class="cls-4" width="130" height="130" transform="translate(1 2)"/>
    <path id="Path_848" data-name="Path 848" class="cls-5" d="M12,38.32H26.7V32.885H18.443v-4.53h7.913V22.92H18.443v-3.4H26.7V14.2H12Z" transform="translate(1.435 1.748)"/>
    <path id="Path_849" data-name="Path 849" class="cls-5" d="M27.7,19.522h5.087v18.8h6.557v-18.8H44.43V14.2H27.7Z" transform="translate(3.483 1.748)"/>
    <path id="Path_850" data-name="Path 850" class="cls-5" d="M59.317,23.033H51.743V14.2H45.3V38.32h6.443V28.242h7.574V38.32h6.557V14.2H59.317Z" transform="translate(5.778 1.748)"/>
    <path id="Path_851" data-name="Path 851" class="cls-5" d="M100.491,22.986c-2.035-.793-3.278-1.246-3.278-2.265s1.243-1.812,2.261-1.812a3.8,3.8,0,0,1,3.165,1.585l.565.793,3.278-4.416-.452-.453c-1.809-1.812-5.2-2.718-7.461-2.718-4.522,0-8.139,3.284-8.139,7.587,0,4.077,2.939,5.775,6.217,6.908l.452.113c2.148.679,3.5,1.246,3.5,2.831a2.437,2.437,0,0,1-2.487,2.491A4.31,4.31,0,0,1,94.274,30.8l-.452-1.019L89.3,33.744l.339.566a9.937,9.937,0,0,0,8.478,4.756c5.426,0,9.157-3.4,9.157-8.493s-3.957-6.568-6.783-7.587" transform="translate(11.517 1.682)"/>
    <path id="Path_852" data-name="Path 852" class="cls-5" d="M78.748,33.038a6.455,6.455,0,1,1,6.443-6.455,6.375,6.375,0,0,1-6.443,6.455m0-19.138A12.57,12.57,0,1,0,91.3,26.47,12.459,12.459,0,0,0,78.748,13.9" transform="translate(8.504 1.708)"/>
    <path id="Path_853" data-name="Path 853" class="cls-6" d="M77.613,22.7a2.718,2.718,0,1,0,2.713,2.718A2.753,2.753,0,0,0,77.613,22.7" transform="translate(9.639 2.873)"/>
    <path id="Path_854" data-name="Path 854" class="cls-6" d="M17.652,49.594V44.725h0L16.07,49.594h-1.13l-1.47-4.869h-.113l.113,4.869H12V42.8h2.148L15.5,47.1h.113l1.357-4.3h2.148v6.794Z" transform="translate(1.435 5.534)"/>
    <path id="Path_855" data-name="Path 855" class="cls-6" d="M24,49.594V42.8h4.183v1.359H25.47V45.4h2.487v1.359H25.47v1.472H28.3v1.359Z" transform="translate(3 5.534)"/>
    <path id="Path_856" data-name="Path 856" class="cls-6" d="M33,49.594V48.236l2.939-4.077H33.113V42.8h4.635v1.246l-2.939,4.19h3.052v1.359Z" transform="translate(4.174 5.534)"/>
    <path id="Path_857" data-name="Path 857" class="cls-6" d="M42.5,49.594V48.236l2.939-4.077H42.613V42.8h4.635v1.246l-2.939,4.19h3.052v1.359Z" transform="translate(5.413 5.534)"/>
    <path id="Path_858" data-name="Path 858" class="cls-6" d="M54.878,44.612l-.791,2.378H55.67Zm1.7,4.983-.452-1.359H53.748l-.565,1.359H51.6L54.2,42.8h1.47l2.6,6.794Z" transform="translate(6.6 5.534)"/>
    <path id="Path_859" data-name="Path 859" class="cls-6" d="M66.343,49.594,63.97,45.178h-.113l.113,4.416H62.5V42.8h1.7l2.487,4.416h0V42.8h1.357v6.794Z" transform="translate(8.022 5.534)"/>
    <rect id="Rectangle_2242" data-name="Rectangle 2242" class="cls-6" width="1.47" height="6.794" transform="translate(82.617 48.334)"/>
    <path id="Path_860" data-name="Path 860" class="cls-6" d="M84.157,49.594,81.67,45.178h0v4.416H80.2V42.8h1.7l2.487,4.416h0V42.8h1.47v6.794Z" transform="translate(10.33 5.534)"/>
    <path id="Path_861" data-name="Path 861" class="cls-6" d="M90.9,49.594V42.8h4.183v1.359H92.37V45.4h2.6v1.359h-2.6v1.472H95.2v1.359Z" transform="translate(11.726 5.534)"/>
    <path id="Path_862" data-name="Path 862" class="cls-6" d="M16.778,54.338a.682.682,0,0,0-.113-.453c-.113-.113-.113-.226-.226-.226a.415.415,0,0,0-.339-.113H15.083v1.585h1.13c.113,0,.226-.113.339-.113.113-.113.226-.113.226-.226-.113-.113,0-.34,0-.453m1.47,0a2.264,2.264,0,0,1-.226,1.019,3,3,0,0,1-.565.679,1.687,1.687,0,0,1-.791.34,2.2,2.2,0,0,1-.9.113H14.97v2.6H13.5V52.3h2.261a2.2,2.2,0,0,1,.9.113,5.507,5.507,0,0,1,.791.34c.226.113.339.34.565.679a1.465,1.465,0,0,1,.226.906" transform="translate(1.63 6.792)"/>
    <path id="Path_863" data-name="Path 863" class="cls-6" d="M25.965,54l-.791,2.378h1.583Zm1.7,5.1-.452-1.359H24.835l-.452,1.359H22.8L25.4,52.3h1.47l2.6,6.794Z" transform="translate(2.843 6.792)"/>
    <path id="Path_864" data-name="Path 864" class="cls-6" d="M36.365,54.338c0-.113,0-.34-.113-.34-.113-.113-.113-.226-.226-.226s-.226-.113-.339-.113h-1.13v1.585h1.017c.113,0,.226-.113.339-.113.113-.113.226-.113.226-.226a.733.733,0,0,0,.226-.566m.113,4.756-1.357-2.718H34.67v2.718H33.2V52.3h2.374a2.485,2.485,0,0,1,.9.113c.226.113.565.226.791.34a1.159,1.159,0,0,1,.565.679,2.264,2.264,0,0,1,.226,1.019,1.693,1.693,0,0,1-.339,1.132,1.758,1.758,0,0,1-.9.679L38.4,59.208H36.478Z" transform="translate(4.2 6.792)"/>
    <path id="Path_865" data-name="Path 865" class="cls-6" d="M45.678,53.672v5.436H44.1V53.672H42.4V52.2h4.974v1.472Z" transform="translate(5.4 6.779)"/>
    <path id="Path_866" data-name="Path 866" class="cls-6" d="M55.743,59.108l-2.487-4.53h0v4.53H51.9V52.2h1.7l2.374,4.53h.113L55.97,52.2h1.47v6.908Z" transform="translate(6.639 6.779)"/>
    <path id="Path_867" data-name="Path 867" class="cls-6" d="M63,59.108V52.2h4.183v1.472H64.47v1.246h2.487v1.359H64.47v1.359H67.3v1.472Z" transform="translate(8.087 6.779)"/>
    <path id="Path_868" data-name="Path 868" class="cls-6" d="M75.378,54.338c0-.113,0-.34-.113-.34-.113-.113-.113-.226-.226-.226s-.226-.113-.339-.113H73.57v1.585h1.017c.113,0,.226-.113.339-.113.113-.113.226-.113.226-.226a.733.733,0,0,0,.226-.566m0,4.756-1.357-2.718H73.57v2.718H72.1V52.3h2.374a2.485,2.485,0,0,1,.9.113c.226.113.565.226.791.34a1.159,1.159,0,0,1,.565.679,2.265,2.265,0,0,1,.226,1.019,1.693,1.693,0,0,1-.339,1.132,1.758,1.758,0,0,1-.9.679L77.3,59.208H75.378Z" transform="translate(9.274 6.792)"/>
    <path id="Path_869" data-name="Path 869" class="cls-6" d="M84.43,54.012c-.113-.226-.339-.34-.452-.453a1.227,1.227,0,0,0-.565-.113h-.339a.4.4,0,0,0-.226.113c-.113,0-.113.113-.226.226a.567.567,0,0,0,0,.679c0,.113.113.113.226.226a.415.415,0,0,0,.339.113c.113,0,.226.113.339.113.226.113.452.113.678.226a2.47,2.47,0,0,1,.565.34,1.13,1.13,0,0,1,.452.566,2.136,2.136,0,0,1,.226.906,3.311,3.311,0,0,1-.226,1.019,1.159,1.159,0,0,1-.565.679,1.821,1.821,0,0,1-.791.453,2.485,2.485,0,0,1-.9.113,4.057,4.057,0,0,1-1.243-.226,3.945,3.945,0,0,1-1.017-.679l1.017-1.132c.113.226.339.34.565.566a1.6,1.6,0,0,0,.678.226H83.3a.394.394,0,0,0,.226-.113c.113,0,.113-.113.226-.226,0-.113.113-.226.113-.34a.416.416,0,0,0-.113-.34c-.113-.113-.113-.226-.226-.226-.113-.113-.226-.113-.452-.226-.113-.113-.339-.113-.565-.226s-.339-.113-.565-.226a1.561,1.561,0,0,1-.452-.34,2.476,2.476,0,0,1-.339-.566,1.682,1.682,0,0,1-.113-.793,3.312,3.312,0,0,1,.226-1.019,3,3,0,0,1,.565-.679,1.025,1.025,0,0,1,.791-.34,2.485,2.485,0,0,1,.9-.113,3.3,3.3,0,0,1,1.017.226,1.758,1.758,0,0,1,.9.679Z" transform="translate(10.396 6.779)"/>
  </g>
</svg>
