<svg xmlns="http://www.w3.org/2000/svg" viewBox="-20737.699 -21256.699 99.789 99.789">
  <defs>
    <style>
      .cls-1 {
        stroke: #b3996b;
        stroke-miterlimit: 10;
        stroke-width: 1.4px;
      }

      .cls-2 {
        fill: #fff;
      }

      .cls-3 {
        fill: #b3996b;
      }
    </style>
  </defs>
  <g id="Group_3069" data-name="Group 3069" transform="translate(-20737.699 -21256.699)">
    <rect id="Rectangle_2231" data-name="Rectangle 2231" class="cls-1" width="98.39" height="98.39" transform="translate(0.7 0.7)"/>
    <path id="Path_798" data-name="Path 798" class="cls-2" d="M10.3,31.024H21.632V26.895H15.307V23.381h6.062V19.164H15.307V16.529h6.325V12.4H10.3Z" transform="translate(-1.167 -1.422)"/>
    <path id="Path_799" data-name="Path 799" class="cls-2" d="M25.9,16.529h3.953V31.024h5.007V16.529h3.953V12.4H25.9Z" transform="translate(-3.062 -1.422)"/>
    <path id="Path_800" data-name="Path 800" class="cls-2" d="M54.293,19.252H48.407V12.4H43.4V31.024h5.007V23.293h5.886v7.731H59.3V12.4H54.293Z" transform="translate(-5.189 -1.422)"/>
    <path id="Path_801" data-name="Path 801" class="cls-2" d="M95.909,19.1c-1.581-.615-2.548-.966-2.548-1.757s.966-1.406,1.757-1.406a2.955,2.955,0,0,1,2.46,1.23l.439.615,2.548-3.426-.351-.351a9.072,9.072,0,0,0-5.8-2.108,6.035,6.035,0,0,0-6.325,5.8c0,3.163,2.284,4.392,4.744,5.359l.351.088c1.581.527,2.723.966,2.723,2.2a1.892,1.892,0,0,1-1.933,1.933,3.348,3.348,0,0,1-2.987-2.2l-.176-.791L87.3,27.361l.264.439a7.69,7.69,0,0,0,6.5,3.69c4.217,0,7.028-2.635,7.028-6.589.088-3.865-2.9-5.007-5.183-5.8" transform="translate(-10.524 -1.361)"/>
    <path id="Path_802" data-name="Path 802" class="cls-2" d="M73.951,26.946a5.007,5.007,0,1,1,5.007-5.007,4.95,4.95,0,0,1-5.007,5.007m0-14.846A9.751,9.751,0,1,0,83.7,21.851,9.674,9.674,0,0,0,73.951,12.1" transform="translate(-7.716 -1.385)"/>
    <path id="Path_803" data-name="Path 803" class="cls-3" d="M75.021,20.9a2.021,2.021,0,1,0,0,4.041,2.043,2.043,0,0,0,2.021-2.021A1.937,1.937,0,0,0,75.021,20.9" transform="translate(-8.786 -2.455)"/>
    <path id="Path_804" data-name="Path 804" class="cls-3" d="M13.726,44.368a1.27,1.27,0,0,1-.615.176,1.5,1.5,0,0,1-.615-.088.877.877,0,0,1-.439-.351c-.088-.176-.264-.351-.264-.527a1.713,1.713,0,0,1-.088-.7,1.934,1.934,0,0,1,.088-.7l.264-.527a.877.877,0,0,1,.439-.351,1.27,1.27,0,0,1,.615-.176c.176,0,.351.088.615.088a.877.877,0,0,1,.439.351l.791-.966a2.422,2.422,0,0,0-1.933-.791,3.775,3.775,0,0,0-1.054.176,3.155,3.155,0,0,0-.878.615,3.627,3.627,0,0,0-.615.966,2.792,2.792,0,0,0-.176,1.23,5.185,5.185,0,0,0,.176,1.23,3.627,3.627,0,0,0,.615.966,3.155,3.155,0,0,0,.878.615,2.228,2.228,0,0,0,1.054.176,2.432,2.432,0,0,0,1.142-.264,1.55,1.55,0,0,0,.791-.7l-.878-.878a.877.877,0,0,1-.351.439" transform="translate(-1.167 -4.751)"/>
    <path id="Path_805" data-name="Path 805" class="cls-3" d="M27.321,43.514l.615-1.933.615,1.933ZM27.408,40,25.3,45.622h1.318l.351-1.142H28.9l.351,1.142h1.318L28.55,40Z" transform="translate(-2.989 -4.776)"/>
    <path id="Path_806" data-name="Path 806" class="cls-3" d="M44.348,42.121c-.088.088-.088.176-.176.176a.323.323,0,0,1-.264.088H43.03V41.066h.878c.088,0,.176.088.264.088.088.088.176.088.176.176.088.088.088.176.088.351a3.8,3.8,0,0,1-.088.439m.7-1.669a.8.8,0,0,0-.615-.264,2.432,2.432,0,0,0-.791-.088H41.8v5.622h1.23v-2.2h.615a2.432,2.432,0,0,0,.791-.088,4.282,4.282,0,0,0,.615-.264,2.329,2.329,0,0,0,.439-.527,2.565,2.565,0,0,0,.176-.791,1.754,1.754,0,0,0-.176-.791.869.869,0,0,0-.439-.615" transform="translate(-4.994 -4.788)"/>
    <rect id="Rectangle_2232" data-name="Rectangle 2232" class="cls-3" width="1.23" height="5.622" transform="translate(50.071 35.224)"/>
    <path id="Path_807" data-name="Path 807" class="cls-3" d="M68.8,41.23h1.406v4.48h1.23V41.23h1.406V40H68.8Z" transform="translate(-8.275 -4.776)"/>
    <path id="Path_808" data-name="Path 808" class="cls-3" d="M84.721,43.514l.615-1.933.615,1.933ZM84.808,40,82.7,45.622h1.318l.351-1.142H86.3l.351,1.142h1.318L86.038,40Z" transform="translate(-9.965 -4.776)"/>
    <path id="Path_809" data-name="Path 809" class="cls-3" d="M100.43,40H99.2v5.71h3.25V44.48h-2.02Z" transform="translate(-11.97 -4.776)"/>
  </g>
</svg>
