<svg xmlns="http://www.w3.org/2000/svg" viewBox="-18570.699 -13970.699 99.289 99.29">
  <defs>
    <style>
      .cls-1 {
        fill: none;
        stroke: #b3996b;
        stroke-miterlimit: 10;
        stroke-width: 1.4px;
      }

      .cls-2 {
        fill: #fff;
      }

      .cls-3 {
        fill: #b3996b;
      }
    </style>
  </defs>
  <g id="Group_4218" data-name="Group 4218" transform="translate(-18570.699 -13970.699)">
    <rect id="Rectangle_2646" data-name="Rectangle 2646" width="97.89" height="97.89" transform="translate(0.7 0.7)"/>
    <rect id="Rectangle_2647" data-name="Rectangle 2647" class="cls-1" width="97.89" height="97.89" transform="translate(0.7 0.7)"/>
    <path id="Path_1717" data-name="Path 1717" class="cls-2" d="M9.8,30.891H21.162V26.7H14.869V23.2h6.118V19H14.869V16.3h6.293V12.1H9.8Z" transform="translate(-1.146 -1.436)"/>
    <path id="Path_1718" data-name="Path 1718" class="cls-2" d="M25.6,16.3h4.02v14.6H34.69V16.3h3.933V12.1H25.6Z" transform="translate(-3.137 -1.436)"/>
    <path id="Path_1719" data-name="Path 1719" class="cls-2" d="M54.313,19.092H48.369V12.1H43.3V30.891h5.069V23.025h5.943v7.866h5.069V12.1H54.313Z" transform="translate(-5.367 -1.436)"/>
    <g id="Group_4212" data-name="Group 4212" transform="translate(56.462 10.314)">
      <path id="Path_1720" data-name="Path 1720" class="cls-2" d="M96.478,18.867c-1.573-.612-2.535-.961-2.535-1.748s.961-1.4,1.835-1.4a2.987,2.987,0,0,1,2.535,1.224l.524.612,2.622-3.409-.35-.35a9.084,9.084,0,0,0-5.856-2.1,6.1,6.1,0,0,0-6.38,5.856c0,3.146,2.272,4.457,4.807,5.419l.35.087c1.661.524,2.709,1.049,2.709,2.185a1.882,1.882,0,0,1-1.923,1.923,3.362,3.362,0,0,1-2.972-2.185L91.5,24.2,88,27.257l.262.437a7.7,7.7,0,0,0,6.555,3.671c4.283,0,7.08-2.622,7.08-6.643-.087-3.846-3.146-5.069-5.419-5.856" transform="translate(-67.461 -11.7)"/>
      <path id="Path_1721" data-name="Path 1721" class="cls-2" d="M74.289,26.758a5.069,5.069,0,1,1,5.069-5.069,5.189,5.189,0,0,1-5.069,5.069m0-14.858a9.789,9.789,0,1,0,9.789,9.789A9.773,9.773,0,0,0,74.289,11.9" transform="translate(-64.5 -11.725)"/>
      <path id="Path_1722" data-name="Path 1722" class="cls-3" d="M75.4,20.7a2.1,2.1,0,1,0,2.1,2.1,2.127,2.127,0,0,0-2.1-2.1" transform="translate(-65.609 -12.834)"/>
    </g>
    <path id="Path_1723" data-name="Path 1723" class="cls-3" d="M10,45.682V40.7h1.049v3.933H12.8v1.049Z" transform="translate(-1.172 -5.039)"/>
    <path id="Path_1724" data-name="Path 1724" class="cls-3" d="M20.26,42.011l-.612,1.748h1.136Zm1.224,3.671-.35-.961H19.386l-.35.961H17.9L19.735,40.7h1.049l1.835,4.982Z" transform="translate(-2.167 -5.039)"/>
    <g id="Group_4213" data-name="Group 4213" transform="translate(24.998 35.661)">
      <path id="Path_1725" data-name="Path 1725" class="cls-3" d="M30.772,42.273a.321.321,0,0,0-.087-.262.271.271,0,0,1-.087-.175c-.087,0-.175-.087-.262-.087h-.874v1.136h.787c.087,0,.175-.087.262-.087a.188.188,0,0,0,.175-.175.661.661,0,0,0,.087-.35m.087,3.409-.961-2.01h-.35v2.01H28.5V40.7h1.661a1.487,1.487,0,0,1,.612.087l.524.262a.873.873,0,0,1,.35.437,1.647,1.647,0,0,1,.175.7,1.477,1.477,0,0,1-.262.874,1.086,1.086,0,0,1-.7.524L32,45.682H30.86Z" transform="translate(-28.5 -40.7)"/>
      <path id="Path_1726" data-name="Path 1726" class="cls-3" d="M40.109,45.682a3.277,3.277,0,0,1-.961.087,3.142,3.142,0,0,1-.961-.175,2.064,2.064,0,0,1-.787-.524l-.524-.787a4.387,4.387,0,0,1-.175-1.049,3.26,3.26,0,0,1,.175-1.049,2.41,2.41,0,0,1,1.311-1.311,3.717,3.717,0,0,1,.961-.175,3.142,3.142,0,0,1,.961.175,1.9,1.9,0,0,1,.7.437l-.7.874a.873.873,0,0,0-.437-.35,1.3,1.3,0,0,0-.612-.087,1.109,1.109,0,0,0-.524.087,1.534,1.534,0,0,0-.437.35,2.909,2.909,0,0,0-.262.524,1.487,1.487,0,0,0-.087.612,1.3,1.3,0,0,0,.087.612l.262.524a.873.873,0,0,0,.437.35,1.3,1.3,0,0,0,.612.087h.35c.087,0,.175-.087.35-.087v-.874h-.874v-.961h1.835v2.622c-.087-.087-.35,0-.7.087" transform="translate(-29.533 -40.7)"/>
    </g>
    <path id="Path_1727" data-name="Path 1727" class="cls-3" d="M46.6,45.682V40.7h2.972v1.049H47.649v.961h1.835v.961H47.649v.961h2.01v1.049Z" transform="translate(-5.783 -5.039)"/>
    <g id="Group_4214" data-name="Group 4214" transform="translate(8.566 43.439)">
      <path id="Path_1728" data-name="Path 1728" class="cls-3" d="M12.06,53.009a.668.668,0,0,0-.175-.437,1.109,1.109,0,0,0-.524-.087h-.612V53.62h.874c.087,0,.175-.087.262-.087a.188.188,0,0,0,.175-.175c-.087-.087,0-.175,0-.35m-.175-1.923a.454.454,0,0,0-.175-.35c-.087-.087-.262-.087-.524-.087h-.524V51.7h.612a.668.668,0,0,0,.437-.175c.087-.175.175-.262.175-.437m1.224,2.01a1.647,1.647,0,0,1-.175.7,1.906,1.906,0,0,1-.35.437l-.524.262a1.487,1.487,0,0,1-.612.087H9.7V49.6h1.748a1.109,1.109,0,0,1,.524.087,1.242,1.242,0,0,1,.524.175c.175.087.262.262.35.35a1.263,1.263,0,0,1,.175.612,1.647,1.647,0,0,1-.175.7c-.175.175-.35.35-.524.35h0c.087,0,.262.087.35.087l.262.262a.454.454,0,0,1,.175.35V53.1" transform="translate(-9.7 -49.6)"/>
      <path id="Path_1729" data-name="Path 1729" class="cls-3" d="M22.371,53.533a3.8,3.8,0,0,1-.35.612,1.568,1.568,0,0,1-.612.437,2.552,2.552,0,0,1-.787.175,2.552,2.552,0,0,1-.787-.175,1.568,1.568,0,0,1-.612-.437,1.409,1.409,0,0,1-.35-.612,2.552,2.552,0,0,1-.175-.787V49.687h1.049v2.884c0,.175,0,.262.087.35a.663.663,0,0,0,.175.35l.262.262a.525.525,0,0,0,.35.087c.175,0,.262,0,.35-.087l.262-.262c.087-.087.087-.175.175-.35V49.6h1.049v3.059a1.438,1.438,0,0,1-.087.874" transform="translate(-10.834 -49.6)"/>
    </g>
    <path id="Path_1730" data-name="Path 1730" class="cls-3" d="M30.509,52.484v2.1H29.461v-2.1L27.8,49.6h1.224l.961,1.835.961-1.835h1.311Z" transform="translate(-3.414 -6.161)"/>
    <g id="Group_4215" data-name="Group 4215" transform="translate(32.165 43.352)">
      <path id="Path_1731" data-name="Path 1731" class="cls-3" d="M40.371,52.035a1.487,1.487,0,0,0-.087-.612l-.262-.524a.873.873,0,0,0-.437-.35,1.617,1.617,0,0,0-1.049,0,1.534,1.534,0,0,0-.437.35,2.91,2.91,0,0,0-.262.524c0,.262,0,.437,0,.612a1.3,1.3,0,0,0,.087.612l.262.524a.873.873,0,0,0,.437.35,1.617,1.617,0,0,0,1.049,0,1.534,1.534,0,0,0,.437-.35,2.91,2.91,0,0,0,.262-.524c0-.175,0-.35,0-.612m1.224,0a3.756,3.756,0,0,1-.175,1.049,1.814,1.814,0,0,1-.524.874,1.273,1.273,0,0,1-.787.524,2.731,2.731,0,0,1-1.923,0,2.064,2.064,0,0,1-.787-.524,7.687,7.687,0,0,1-.524-.874,4.387,4.387,0,0,1-.175-1.049,3.26,3.26,0,0,1,.175-1.049,2.41,2.41,0,0,1,1.311-1.311,2.731,2.731,0,0,1,1.923,0,2.064,2.064,0,0,1,.787.524l.524.787a4.387,4.387,0,0,1,.175,1.049" transform="translate(-36.7 -49.5)"/>
      <path id="Path_1732" data-name="Path 1732" class="cls-3" d="M50.371,53.533a3.8,3.8,0,0,1-.35.612,1.568,1.568,0,0,1-.612.437,1.857,1.857,0,0,1-1.573,0,1.568,1.568,0,0,1-.612-.437,1.409,1.409,0,0,1-.35-.612,2.552,2.552,0,0,1-.175-.787V49.687h1.049v2.884c0,.175,0,.262.087.35a.663.663,0,0,0,.175.35l.262.262a.525.525,0,0,0,.35.087c.175,0,.262,0,.35-.087l.262-.262c.087-.087.087-.175.175-.35V49.6h1.049v3.059a2.694,2.694,0,0,1-.087.874" transform="translate(-37.96 -49.513)"/>
    </g>
    <path id="Path_1733" data-name="Path 1733" class="cls-3" d="M57.96,50.649v3.933H56.824V50.649H55.6V49.6h3.583v1.049Z" transform="translate(-6.916 -6.161)"/>
    <path id="Path_1734" data-name="Path 1734" class="cls-3" d="M11.049,59.549v.961H12.8v1.049H11.049v1.923H10V58.5h2.884v1.049Z" transform="translate(-1.172 -7.282)"/>
    <g id="Group_4216" data-name="Group 4216" transform="translate(16.432 51.306)">
      <path id="Path_1735" data-name="Path 1735" class="cls-3" d="M22.371,62.446a3.8,3.8,0,0,1-.35.612,1.568,1.568,0,0,1-.612.437,2.552,2.552,0,0,1-.787.175,2.552,2.552,0,0,1-.787-.175,1.568,1.568,0,0,1-.612-.437,1.409,1.409,0,0,1-.35-.612,2.552,2.552,0,0,1-.175-.787V58.6h1.049v2.972c0,.175,0,.262.087.35a.663.663,0,0,0,.175.35l.262.262a.525.525,0,0,0,.35.087c.175,0,.262,0,.35-.087l.262-.262c.087-.087.087-.175.175-.35V58.6h1.049v2.972a1.438,1.438,0,0,1-.087.874" transform="translate(-18.7 -58.6)"/>
    </g>
    <path id="Path_1736" data-name="Path 1736" class="cls-3" d="M31.1,63.482l-1.748-3.234h0v3.234H28.3V58.5h1.224l1.748,3.234h.087L31.272,58.5H32.32v4.982Z" transform="translate(-3.477 -7.282)"/>
    <g id="Group_4217" data-name="Group 4217" transform="translate(33.039 51.218)">
      <path id="Path_1737" data-name="Path 1737" class="cls-3" d="M40.672,60.947a1.7,1.7,0,0,0-.087-.7.873.873,0,0,0-.35-.437c-.175-.087-.262-.175-.437-.262a1.109,1.109,0,0,0-.524-.087h-.524v2.972h.524a1.109,1.109,0,0,0,.524-.087c.175-.087.35-.087.437-.262a.873.873,0,0,0,.35-.437c0-.175.087-.437.087-.7m1.136,0a4.428,4.428,0,0,1-.175,1.136,1.9,1.9,0,0,1-.612.787,3.542,3.542,0,0,1-.787.437,3.105,3.105,0,0,1-.874.175H37.7V58.5h1.661a3.585,3.585,0,0,1,.961.087,1.177,1.177,0,0,1,.787.437,1.9,1.9,0,0,1,.612.787c0,.262.087.7.087,1.136" transform="translate(-37.7 -58.5)"/>
    </g>
  </g>
</svg>
