<svg xmlns="http://www.w3.org/2000/svg" viewBox="-16567.699 -13970.7 99.289 99.29">
  <defs>
    <style>
      .cls-1 {
        fill: none;
        stroke: #b3996b;
        stroke-miterlimit: 10;
        stroke-width: 1.4px;
      }

      .cls-2 {
        fill: #fff;
      }

      .cls-3 {
        fill: #b3996b;
      }
    </style>
  </defs>
  <g id="Group_4211" data-name="Group 4211" transform="translate(-16567.699 -13970.7)">
    <rect id="Rectangle_2641" data-name="Rectangle 2641" width="97.89" height="97.89" transform="translate(0.7 0.7)"/>
    <rect id="Rectangle_2642" data-name="Rectangle 2642" class="cls-1" width="97.89" height="97.89" transform="translate(0.7 0.7)"/>
    <path id="Path_1695" data-name="Path 1695" class="cls-2" d="M10.1,30.491H21.55V26.3h-6.38V22.8h6.118V18.6H15.169V15.9h6.38V11.7H10.1Z" transform="translate(-1.184 -1.386)"/>
    <path id="Path_1696" data-name="Path 1696" class="cls-2" d="M26,15.9h3.933v14.6H35V15.9h4.02V11.7H26Z" transform="translate(-3.187 -1.386)"/>
    <path id="Path_1697" data-name="Path 1697" class="cls-2" d="M54.625,18.6H48.769V11.7H43.7V30.491h5.069V22.625h5.856v7.866h5.069V11.7H54.625Z" transform="translate(-5.417 -1.386)"/>
    <g id="Group_4205" data-name="Group 4205" transform="translate(56.724 9.965)">
      <path id="Path_1698" data-name="Path 1698" class="cls-2" d="M96.878,18.467c-1.573-.612-2.535-.961-2.535-1.748s.961-1.4,1.835-1.4a2.987,2.987,0,0,1,2.535,1.224l.524.612,2.622-3.409-.35-.35a9.084,9.084,0,0,0-5.856-2.1,6.1,6.1,0,0,0-6.38,5.856c0,3.146,2.272,4.457,4.807,5.419l.35.087c1.661.524,2.709,1.049,2.709,2.185a1.882,1.882,0,0,1-1.923,1.923,3.362,3.362,0,0,1-2.972-2.185L91.9,23.8l-3.5,3.059.262.437a7.7,7.7,0,0,0,6.555,3.671c4.283,0,7.08-2.622,7.08-6.643-.175-3.846-3.234-5.069-5.419-5.856" transform="translate(-67.773 -11.3)"/>
      <path id="Path_1699" data-name="Path 1699" class="cls-2" d="M74.589,26.358a5.069,5.069,0,1,1,5.069-5.069,5.073,5.073,0,0,1-5.069,5.069m0-14.858a9.789,9.789,0,1,0,9.789,9.789A9.773,9.773,0,0,0,74.589,11.5" transform="translate(-64.8 -11.325)"/>
      <path id="Path_1700" data-name="Path 1700" class="cls-3" d="M75.7,20.3a2.1,2.1,0,1,0,2.1,2.1,2.127,2.127,0,0,0-2.1-2.1" transform="translate(-65.909 -12.434)"/>
    </g>
    <path id="Path_1701" data-name="Path 1701" class="cls-3" d="M81.465,57.056h.087L87.146,40.1h2.8L82.6,60.727h-2.36L72.9,40.1h2.972Z" transform="translate(-9.096 -4.964)"/>
    <rect id="Rectangle_2643" data-name="Rectangle 2643" class="cls-3" width="2.622" height="20.714" transform="translate(83.557 35.136)"/>
    <path id="Path_1702" data-name="Path 1702" class="cls-3" d="M10.3,45.282V40.3h1.136v3.933h1.748v1.049Z" transform="translate(-1.209 -4.989)"/>
    <path id="Path_1703" data-name="Path 1703" class="cls-3" d="M20.66,41.611l-.612,1.748h1.136Zm1.224,3.671-.35-.961H19.786l-.35.961H18.3L20.135,40.3h1.049l1.835,4.982Z" transform="translate(-2.217 -4.989)"/>
    <g id="Group_4206" data-name="Group 4206" transform="translate(25.26 35.311)">
      <path id="Path_1704" data-name="Path 1704" class="cls-3" d="M31.16,41.873a.321.321,0,0,0-.087-.262l-.175-.175c-.087,0-.175-.087-.262-.087h-.787v1.136h.787c.087,0,.175-.087.262-.087a.188.188,0,0,0,.175-.175.661.661,0,0,0,.087-.35m0,3.409-.961-2.01h-.35v2.01H28.8V40.3h1.748a1.487,1.487,0,0,1,.612.087l.524.262a.873.873,0,0,1,.35.437,1.647,1.647,0,0,1,.175.7,1.477,1.477,0,0,1-.262.874,1.086,1.086,0,0,1-.7.524l1.224,2.1Z" transform="translate(-28.8 -40.3)"/>
      <path id="Path_1705" data-name="Path 1705" class="cls-3" d="M40.509,45.282a3.277,3.277,0,0,1-.961.087,3.142,3.142,0,0,1-.961-.175,2.064,2.064,0,0,1-.787-.524l-.524-.787a4.387,4.387,0,0,1-.175-1.049,3.26,3.26,0,0,1,.175-1.049,2.41,2.41,0,0,1,1.311-1.311,2.731,2.731,0,0,1,1.923,0,1.9,1.9,0,0,1,.7.437l-.7.874a.873.873,0,0,0-.437-.35,1.3,1.3,0,0,0-.612-.087,1.109,1.109,0,0,0-.524.087,1.534,1.534,0,0,0-.437.35,1,1,0,0,0-.262.524,1.487,1.487,0,0,0-.087.612,1.3,1.3,0,0,0,.087.612l.262.524a.873.873,0,0,0,.437.35,1.3,1.3,0,0,0,.612.087h.35c.087,0,.175-.087.35-.087v-.874h-.874v-.961h1.835v2.622c-.175-.087-.35,0-.7.087" transform="translate(-29.846 -40.3)"/>
    </g>
    <path id="Path_1706" data-name="Path 1706" class="cls-3" d="M46.9,45.282V40.3h3.059v1.049h-2.01v.961h1.923v.961H47.949v.961h2.1v1.049Z" transform="translate(-5.82 -4.989)"/>
    <g id="Group_4207" data-name="Group 4207" transform="translate(8.916 43.09)">
      <path id="Path_1707" data-name="Path 1707" class="cls-3" d="M12.372,52.609a.668.668,0,0,0-.175-.437,1.109,1.109,0,0,0-.524-.087h-.612V53.22h.874c.087,0,.175-.087.262-.087a.188.188,0,0,0,.175-.175v-.35m-.087-1.923a.454.454,0,0,0-.175-.35c-.087-.087-.262-.087-.524-.087h-.524V51.3h.612a.668.668,0,0,0,.437-.175c.087-.175.175-.262.175-.437m1.224,2.01a1.647,1.647,0,0,1-.175.7,1.906,1.906,0,0,1-.35.437l-.524.262a1.487,1.487,0,0,1-.612.087H10.1V49.2h1.748a1.109,1.109,0,0,1,.524.087,1.242,1.242,0,0,1,.524.175c.175.087.262.262.35.35a1.263,1.263,0,0,1,.175.612,1.647,1.647,0,0,1-.175.7c-.175.175-.35.35-.524.35h0c.087,0,.262.087.35.087l.262.262a.454.454,0,0,1,.175.35V52.7" transform="translate(-10.1 -49.2)"/>
      <path id="Path_1708" data-name="Path 1708" class="cls-3" d="M22.771,53.133a3.8,3.8,0,0,1-.35.612,1.568,1.568,0,0,1-.612.437,2.42,2.42,0,0,1-.787.087,2.552,2.552,0,0,1-.787-.175,1.568,1.568,0,0,1-.612-.437,1.409,1.409,0,0,1-.35-.612,2.552,2.552,0,0,1-.175-.787V49.2h1.049v2.972c0,.175,0,.262.087.35a.663.663,0,0,0,.175.35l.262.262a.525.525,0,0,0,.35.087c.175,0,.262,0,.35-.087l.262-.262c.087-.087.087-.175.175-.35V49.2h1.049v3.059a1.438,1.438,0,0,1-.087.874" transform="translate(-11.234 -49.2)"/>
    </g>
    <path id="Path_1709" data-name="Path 1709" class="cls-3" d="M30.9,52.084v2.1H29.761v-2.1L28.1,49.2h1.311l.961,1.835.961-1.835h1.224Z" transform="translate(-3.452 -6.11)"/>
    <g id="Group_4208" data-name="Group 4208" transform="translate(32.427 43.002)">
      <path id="Path_1710" data-name="Path 1710" class="cls-3" d="M40.758,51.635a1.487,1.487,0,0,0-.087-.612l-.262-.524a.873.873,0,0,0-.437-.35,1.617,1.617,0,0,0-1.049,0,1.534,1.534,0,0,0-.437.35,2.91,2.91,0,0,0-.262.524,2.185,2.185,0,0,0,0,1.224l.262.524a.873.873,0,0,0,.437.35,1.617,1.617,0,0,0,1.049,0,1.534,1.534,0,0,0,.437-.35,2.91,2.91,0,0,0,.262-.524,1.3,1.3,0,0,0,.087-.612m1.136,0a3.756,3.756,0,0,1-.175,1.049,1.813,1.813,0,0,1-.524.874,1.273,1.273,0,0,1-.787.524,1.729,1.729,0,0,1-.961.175,3.142,3.142,0,0,1-.961-.175,2.064,2.064,0,0,1-.787-.524,7.685,7.685,0,0,1-.524-.874A4.387,4.387,0,0,1,37,51.635a3.26,3.26,0,0,1,.175-1.049,2.41,2.41,0,0,1,1.311-1.311,2.731,2.731,0,0,1,1.923,0,2.064,2.064,0,0,1,.787.524l.524.787a2.217,2.217,0,0,1,.175,1.049" transform="translate(-37 -49.1)"/>
      <path id="Path_1711" data-name="Path 1711" class="cls-3" d="M50.671,53.133a3.8,3.8,0,0,1-.35.612,1.568,1.568,0,0,1-.612.437,2.42,2.42,0,0,1-.787.087,2.552,2.552,0,0,1-.787-.175,1.568,1.568,0,0,1-.612-.437,1.409,1.409,0,0,1-.35-.612A2.552,2.552,0,0,1,47,52.259V49.2h1.049v2.972c0,.175,0,.262.087.35a.663.663,0,0,0,.175.35l.262.262a.525.525,0,0,0,.35.087c.175,0,.262,0,.35-.087l.262-.262c.087-.087.087-.175.175-.35V49.2h1.049v3.059a1.438,1.438,0,0,1-.087.874" transform="translate(-38.26 -49.113)"/>
    </g>
    <path id="Path_1712" data-name="Path 1712" class="cls-3" d="M58.26,50.249v3.933H57.211V50.249H55.9V49.2h3.671v1.049Z" transform="translate(-6.954 -6.11)"/>
    <path id="Path_1713" data-name="Path 1713" class="cls-3" d="M11.436,59.149v.961H13.1v1.049H11.436v1.923H10.3V58.1h2.972v1.049Z" transform="translate(-1.209 -7.231)"/>
    <g id="Group_4209" data-name="Group 4209" transform="translate(16.782 50.956)">
      <path id="Path_1714" data-name="Path 1714" class="cls-3" d="M22.771,62.046a3.8,3.8,0,0,1-.35.612,1.568,1.568,0,0,1-.612.437,2.552,2.552,0,0,1-.787.175,2.552,2.552,0,0,1-.787-.175,1.568,1.568,0,0,1-.612-.437,1.409,1.409,0,0,1-.35-.612,2.552,2.552,0,0,1-.175-.787V58.2h1.049v2.972c0,.175,0,.262.087.35a.663.663,0,0,0,.175.35l.262.262a.525.525,0,0,0,.35.087c.175,0,.262,0,.35-.087l.262-.262c.087-.087.087-.175.175-.35V58.2h1.049v3.059a1.234,1.234,0,0,1-.087.787" transform="translate(-19.1 -58.2)"/>
    </g>
    <path id="Path_1715" data-name="Path 1715" class="cls-3" d="M31.5,63.082l-1.835-3.234h0l.087,3.234H28.7V58.1h1.224l1.748,3.234h0V58.1H32.72v4.982Z" transform="translate(-3.528 -7.231)"/>
    <g id="Group_4210" data-name="Group 4210" transform="translate(33.301 50.869)">
      <path id="Path_1716" data-name="Path 1716" class="cls-3" d="M41.059,60.547a1.7,1.7,0,0,0-.087-.7.873.873,0,0,0-.35-.437c-.175-.087-.262-.175-.437-.262a1.109,1.109,0,0,0-.524-.087h-.524v2.884h.524a1.109,1.109,0,0,0,.524-.087c.175-.087.35-.087.437-.262a.873.873,0,0,0,.35-.437,4.928,4.928,0,0,0,.087-.612m1.049,0a4.428,4.428,0,0,1-.175,1.136,1.4,1.4,0,0,1-.612.787,3.542,3.542,0,0,1-.787.437,3.105,3.105,0,0,1-.874.175H38V58.1h1.573a3.585,3.585,0,0,1,.961.087,1.177,1.177,0,0,1,.787.437,1.9,1.9,0,0,1,.612.787,2.4,2.4,0,0,1,.175,1.136" transform="translate(-38 -58.1)"/>
    </g>
    <rect id="Rectangle_2644" data-name="Rectangle 2644" class="cls-3" width="6.031" height="0.699" transform="translate(81.809 35.049)"/>
    <rect id="Rectangle_2645" data-name="Rectangle 2645" class="cls-3" width="6.031" height="0.699" transform="translate(81.809 55.151)"/>
  </g>
</svg>
