<?xml version="1.0" encoding="utf-8"?>
<!-- Generator: Adobe Illustrator 21.1.0, SVG Export Plug-In . SVG Version: 6.00 Build 0)  -->
<svg version="1.1" id="Layer_1" xmlns="http://www.w3.org/2000/svg" xmlns:xlink="http://www.w3.org/1999/xlink" x="0px" y="0px"
	 viewBox="0 0 18 20" style="enable-background:new 0 0 18 20;" xml:space="preserve">
<style type="text/css">
	.st0{fill:#FFFFFF;}
</style>
<g id="linkedin">
	<g>
		<g id="Shape_7_copy">
			<path class="st0" d="M0.5,20h3.9V6.3H0.5V20z M15.4,7.1c-1.5-0.8-3.6-0.9-5.1-0.2V6.3H6.3V20h3.9v-8.7l1.6-0.8
				c0.4-0.2,1.3-0.2,1.6,0c0.3,0.2,0.7,0.8,0.7,1.2V20H18v-8.3C18,9.9,16.9,8,15.4,7.1z M2.4,0C1.1,0,0,1.1,0,2.4s1.1,2.4,2.4,2.4
				c1.4,0,2.4-1.1,2.4-2.4S3.8,0,2.4,0z"/>
		</g>
	</g>
</g>
</svg>
