<svg xmlns="http://www.w3.org/2000/svg" viewBox="-20742 -22090 20 20">
  <defs>
    <style>
      .cls-1 {
        fill: #b3996b;
      }
    </style>
  </defs>
  <g id="share_1_" transform="translate(-20742 -22089.9)">
    <path id="Path_10" data-name="Path 10" class="cls-1" d="M16.748,13.642a3.109,3.109,0,0,0-2.515,1.288L6.074,10.7A3.591,3.591,0,0,0,6.2,9.9a2.543,2.543,0,0,0-.184-.982l8.221-4.049a3.026,3.026,0,0,0,2.515,1.288A3.129,3.129,0,1,0,13.62,3.029c0,.245.061.491.061.675L5.4,7.814a3.057,3.057,0,0,0-2.27-1.043,3.129,3.129,0,1,0,0,6.258,3.349,3.349,0,0,0,2.454-1.166L13.8,16.035a2.987,2.987,0,0,0-.061.736,3.129,3.129,0,1,0,6.258,0A3.29,3.29,0,0,0,16.748,13.642Zm0-12.454a1.846,1.846,0,0,1,1.84,1.84,1.887,1.887,0,0,1-1.84,1.84,1.84,1.84,0,1,1,0-3.681ZM3.129,11.74A1.846,1.846,0,0,1,1.288,9.9a1.887,1.887,0,0,1,1.84-1.84,1.84,1.84,0,1,1,0,3.681Zm13.62,6.871a1.84,1.84,0,1,1,1.84-1.84A1.807,1.807,0,0,1,16.748,18.612Z"/>
  </g>
</svg>
