<svg xmlns="http://www.w3.org/2000/svg" viewBox="-16946 13536.004 37.994 37.991"><defs><style>.a{fill:#fff;}.b{fill:#b3996b;}</style></defs><g transform="translate(-18230.99 13056.004)"><g transform="translate(1284.991 480)"><circle class="a" cx="9.859" cy="9.859" r="9.859" transform="translate(9.138 9.137)"/><circle cx="3.957" cy="3.957" r="3.957" transform="translate(15.039 15.038)"/><path class="b" d="M19,28.839A9.951,9.951,0,0,1,9.152,19,9.951,9.951,0,0,1,19,9.152,9.951,9.951,0,0,1,28.839,19,9.73,9.73,0,0,1,19,28.839M19,0A19.164,19.164,0,0,0,0,19,19,19,0,1,0,19,0"/></g></g></svg>