<?xml version="1.0" encoding="utf-8"?>
<!-- Generator: Adobe Illustrator 21.1.0, SVG Export Plug-In . SVG Version: 6.00 Build 0)  -->
<svg version="1.1" id="Layer_1" xmlns="http://www.w3.org/2000/svg" xmlns:xlink="http://www.w3.org/1999/xlink" x="0px" y="0px"
	 viewBox="0 0 24.8 20" style="enable-background:new 0 0 24.8 20;" xml:space="preserve">
<style type="text/css">
	.st0{fill:#FFFFFF;}
</style>
<path class="st0" d="M24.4,2.4c-0.9,0.4-1.9,0.7-2.9,0.8c1-0.6,1.8-1.6,2.2-2.8c-1,0.6-2.1,1-3.2,1.2c-0.9-1-2.2-1.6-3.7-1.6
	c-2.8,0-5,2.3-5,5c0,0.4,0,0.8,0.1,1.1C7.7,6,4,4,1.5,1C1.1,1.7,0.9,2.6,0.9,3.5c0,1.7,0.9,3.3,2.2,4.2c-0.8,0-1.6-0.3-2.3-0.6
	c0,0,0,0,0,0.1c0,2.4,1.7,4.5,4,4.9c-0.4,0.1-0.9,0.2-1.3,0.2c-0.3,0-0.6,0-0.9-0.1c0.6,2,2.5,3.5,4.7,3.5C5.6,17,3.4,17.8,1,17.8
	c-0.4,0-0.8,0-1.2-0.1C2.1,19.2,4.7,20,7.6,20c9.3,0,14.3-7.7,14.3-14.3c0-0.2,0-0.4,0-0.7C22.9,4.3,23.7,3.4,24.4,2.4z"/>
</svg>
